<svg width="48" height="48" viewBox="0 0 48 48" fill="none" xmlns="http://www.w3.org/2000/svg">
<path fill-rule="evenodd" clip-rule="evenodd" d="M24 48C37.2548 48 48 37.2548 48 24C48 10.7452 37.2548 0 24 0C10.7452 0 0 10.7452 0 24C0 37.2548 10.7452 48 24 48ZM23.5911 26.85L11 20.6933V31.3889L11.0059 31.5933C11.0615 32.5142 11.4897 33.3802 12.2028 34.0137C12.9159 34.6472 13.8598 35.0001 14.8409 35H33.1591L33.3765 34.9944C34.356 34.9422 35.2772 34.5396 35.9509 33.8691C36.6247 33.1987 37.0001 32.3113 37 31.3889V20.6944L24.4089 26.85C24.2826 26.9117 24.1424 26.944 24 26.944C23.8576 26.944 23.7174 26.9117 23.5911 26.85ZM33.1591 15H14.8409L14.6235 15.0056C13.644 15.0578 12.7228 15.4604 12.0491 16.1309C11.3753 16.8013 10.9999 17.6887 11 18.6111V18.8156L24 25.1711L37 18.8156V18.6111L36.9941 18.4067C36.9385 17.4858 36.5103 16.6198 35.7972 15.9863C35.0841 15.3528 34.1402 14.9999 33.1591 15Z" fill="#7510F7"/>
</svg>
