<svg width="12" height="9" viewBox="0 0 12 9" fill="none" xmlns="http://www.w3.org/2000/svg">
<path d="M1.99856 1.06087L0.0812149 6.90818C-0.00622559 7.17676 -0.0237141 7.46514 0.0319309 7.74303C0.087575 8.02093 0.213171 8.27804 0.396002 8.48742C0.580422 8.6968 0.814128 8.85046 1.07327 8.93262C1.334 9.01461 1.60905 9.02193 1.87296 8.95374L10.8523 6.62546C11.1544 6.54746 11.4263 6.37351 11.6314 6.12738C11.8349 5.88141 11.9605 5.57524 11.9923 5.25111C12.024 4.92698 11.9573 4.60086 11.8047 4.31714C11.652 4.03342 11.4183 3.80641 11.1369 3.66688L4.07488 0.154509C3.8841 0.0587171 3.67424 0.00616454 3.46279 0.000510145C3.24975 -0.00514425 3.03831 0.0362659 2.84276 0.121747C2.64721 0.207394 2.47074 0.335283 2.32447 0.497099C2.1798 0.658914 2.06851 0.850997 1.99856 1.06087Z" fill="white" fill-opacity="0.6"/>
</svg>
