<svg width="126" height="89" viewBox="0 0 126 89" fill="none" xmlns="http://www.w3.org/2000/svg">
<path d="M103.245 11.2322H65.2559V35.3297H103.245V11.2322Z" fill="#F2F6F9"/>
<path fill-rule="evenodd" clip-rule="evenodd" d="M67.4111 13.4783H101.091V33.0839H67.4111V13.4783ZM100.436 32.4224V14.1397H68.0659V32.4224H100.436Z" fill="#E2E6E8"/>
<path d="M56.9105 58.7791H39.5273V77.0783H56.9105V58.7791Z" fill="#F2F6F9"/>
<path d="M98.7488 64.8752H75.5361V75.8236H98.7488V64.8752Z" fill="#F2F6F9"/>
<path d="M29.6705 9.78271H6.12207V36.1886H29.6705V9.78271Z" fill="#F2F6F9"/>
<path d="M59.8203 1.38745H34.6147V28.9443H59.8203V1.38745Z" fill="#F2F6F9"/>
<path d="M61.0675 33.562H35.875V55.0395H61.0675V33.562Z" fill="#F2F6F9"/>
<path d="M126 26.8391H108.681V44.7531H126V26.8391Z" fill="#F2F6F9"/>
<path d="M118.129 8.66309H109.16V22.5019H118.129V8.66309Z" fill="#F2F6F9"/>
<path d="M97.2017 0H71.2993V8.64985H97.2017V0Z" fill="#F2F6F9"/>
<path d="M118.128 51.4014H108.681V71.4477H118.128V51.4014Z" fill="#F2F6F9"/>
<path d="M104.424 40.2083H79.7349V61.1177H104.424V40.2083Z" fill="#F2F6F9"/>
<path d="M28.4069 40.8088H0V58.8014H28.4069V40.8088Z" fill="#F2F6F9"/>
<path fill-rule="evenodd" clip-rule="evenodd" d="M2.58545 43.1016H25.8219V56.5096H2.58545V43.1016ZM24.9215 55.5998V44.0107H3.48633V55.5998H24.9215Z" fill="#E2E6E8"/>
<path fill-rule="evenodd" clip-rule="evenodd" d="M84.0684 43.9604H100.091V57.3668H84.0684V43.9604ZM99.1898 56.4571V44.8696H84.9688V56.4571H99.1898Z" fill="#E2E6E8"/>
<path fill-rule="evenodd" clip-rule="evenodd" d="M39.6543 36.9624H57.288V51.6387H39.6543V36.9624ZM56.3871 50.7294V37.872H40.5547V50.7294H56.3871Z" fill="#E2E6E8"/>
<path fill-rule="evenodd" clip-rule="evenodd" d="M9.97021 14.1133H25.8214V31.8578H9.97021V14.1133ZM23.7753 29.7907V16.1802H23.7745H12.0171V29.7907H23.7753Z" fill="#E2E6E8"/>
<path fill-rule="evenodd" clip-rule="evenodd" d="M37.5244 4.43066H56.9102V25.9007H37.5244V4.43066ZM56.2555 25.2392V5.09204H38.1797V25.2392H56.2555Z" fill="#E2E6E8"/>
<path fill-rule="evenodd" clip-rule="evenodd" d="M43.0669 62.3818H53.371V73.4765H43.0669V62.3818ZM52.061 72.1538V63.7048H44.377V72.1538H52.061Z" fill="#E2E6E8"/>
<path fill-rule="evenodd" clip-rule="evenodd" d="M111.051 54.0811H115.759V68.7681H111.051V54.0811ZM115.513 68.5201V54.3291H111.297V68.5201H115.513Z" fill="#E2E6E8"/>
<path fill-rule="evenodd" clip-rule="evenodd" d="M74.2383 2.56641H94.2636V6.08273H74.2383V2.56641ZM94.0179 5.83468V2.81443H74.4839V5.83468H94.0179Z" fill="#E2E6E8"/>
<path fill-rule="evenodd" clip-rule="evenodd" d="M112.632 30.7837H122.048V40.8085H112.632V30.7837ZM120.656 39.4027V32.189H114.024V39.4027H120.656Z" fill="#E2E6E8"/>
<path d="M35.6732 63.0022H19.1465V72.855H35.6732V63.0022Z" fill="#F2F6F9"/>
<path d="M56.9105 88.0281C83.1518 88.0281 104.424 87.771 104.424 87.4535C104.424 87.136 83.1518 86.8789 56.9105 86.8789C30.6695 86.8789 9.39697 87.136 9.39697 87.4535C9.39697 87.771 30.6695 88.0281 56.9105 88.0281Z" fill="#E4EFF7"/>
<path d="M66.7625 66.3975L60.8511 87.4276" stroke="#475056" stroke-width="5"/>
<path d="M71.7572 66.3975L65.8457 87.4276" stroke="#475056" stroke-width="5"/>
<path d="M78.9458 66.3975L84.8573 87.4276" stroke="#475056" stroke-width="5"/>
<path d="M83.9404 66.3975L89.8519 87.4276" stroke="#475056" stroke-width="5"/>
<path d="M69.3821 29.6154C71.3011 29.6154 72.8569 27.6092 72.8569 25.1343C72.8569 22.6594 71.3011 20.6531 69.3821 20.6531C67.463 20.6531 65.9072 22.6594 65.9072 25.1343C65.9072 27.6092 67.463 29.6154 69.3821 29.6154Z" fill="#24272D"/>
<path d="M43.3027 49.104C43.3027 47.6984 45.0139 46.5674 47.1247 46.5674C49.2355 46.5674 50.9459 47.7026 50.9459 49.104" fill="#9A98FD"/>
<path d="M42.7303 45.4824H53.0221V46.5672H43.3272C43.2174 46.5669 43.1088 46.5449 43.0075 46.5023C42.9062 46.4596 42.8142 46.3973 42.7368 46.3187C42.6594 46.2402 42.5981 46.147 42.5564 46.0445C42.5146 45.942 42.4933 45.8322 42.4937 45.7214C42.4943 45.6582 42.5194 45.5978 42.5637 45.5531C42.6079 45.5085 42.6677 45.4831 42.7303 45.4824Z" fill="#EA6F57"/>
<path d="M52.2541 47.8911H47.0386C46.7071 47.8911 46.4385 48.1625 46.4385 48.4971V48.498C46.4385 48.8327 46.7071 49.104 47.0386 49.104H52.2541C52.5856 49.104 52.8543 48.8327 52.8543 48.498V48.4971C52.8543 48.1625 52.5856 47.8911 52.2541 47.8911Z" fill="#EA6F57"/>
<path d="M47.5889 45.6941H55.1969V48.1025H48.9997C48.6255 48.1025 48.2666 47.9525 48.0021 47.6852C47.7376 47.4181 47.5889 47.0558 47.5889 46.678V45.6941Z" fill="#EA6F57"/>
<path d="M86.0502 41.259H81.4479V49.0945H89.9811C92.3653 49.0945 93.5419 46.166 91.8298 44.491C88.6277 41.3566 84.5797 37.6088 82.6073 36.6464C79.0637 34.9168 73.2521 34.7803 70.6992 35.3913C68.1463 36.0023 62.4363 42.171 62.4363 42.171L51.7539 43.7014V49.2408H61.5635C62.7935 49.2409 64.0057 48.9429 65.0981 48.3719L69.5571 46.0437C69.5571 46.0437 72.0428 49.9296 72.6806 52.7514H84.4896C84.4896 52.7514 83.7405 47.1532 83.5309 43.9602" fill="white"/>
<path d="M81.4479 49.0945H89.9811C92.3653 49.0945 93.5419 46.166 91.8298 44.491C88.6277 41.3566 84.5797 37.6088 82.6073 36.6464C79.0637 34.9168 73.2521 34.7803 70.6992 35.3913C68.1463 36.0023 62.4363 42.171 62.4363 42.171L51.7539 43.7014V49.2408H61.5635C62.7935 49.2409 64.0057 48.9429 65.0981 48.3719L69.5571 46.0437C69.5571 46.0437 72.0428 49.9296 72.6806 52.7514H84.4896C84.4896 52.7514 84.3734 52.3024 84.036 49.1053" stroke="#25282D" stroke-width="3"/>
<path d="M86.0492 41.259H81.4478" stroke="#25282D" stroke-width="3"/>
<path d="M86.9394 62.6714H63.7373V66.5639H86.9394V62.6714Z" fill="#37426C"/>
<path d="M65.5264 87.4536H75.5939L76.8629 87.4396L75.8919 83.323L71.3371 83.6942L65.5264 87.4536Z" fill="#37426C"/>
<path d="M42.5254 81.6329L51.1887 86.8135L52.2875 87.4535L54.4163 81.5725L49.8312 81.0632L42.5254 81.6329Z" fill="#37426C"/>
<path d="M74.6255 37.5512C74.1087 37.5509 73.6062 37.3805 73.194 37.0656C72.7819 36.7508 72.4828 36.3088 72.342 35.8067L70.1362 27.9464C70.0473 27.6423 70.019 27.3234 70.053 27.0082C70.087 26.693 70.1825 26.3877 70.3341 26.11C70.4857 25.8323 70.6903 25.5877 70.9361 25.3905C71.182 25.1932 71.4641 25.0471 71.7662 24.9607C72.0683 24.8742 72.3844 24.8492 72.6962 24.887C73.0079 24.9247 73.3092 25.0244 73.5825 25.1806C73.8558 25.3367 74.0957 25.546 74.2884 25.7964C74.481 26.0468 74.6227 26.3333 74.705 26.6392L76.9106 34.4995C76.9957 34.8025 77.0208 35.1194 76.9845 35.4322C76.9482 35.745 76.8513 36.0474 76.6992 36.3224C76.5472 36.5973 76.343 36.8393 76.0982 37.0345C75.8536 37.2298 75.5732 37.3744 75.2731 37.4602C75.0623 37.5202 74.8445 37.5508 74.6255 37.5512Z" fill="#EA6F57"/>
<path d="M72.4553 34.0611L72.041 34.1769C71.5586 34.3116 71.0528 34.3373 70.5595 34.2521C70.0661 34.167 69.5973 33.9732 69.1866 33.6843C68.7759 33.3955 68.4333 33.0188 68.1832 32.581C67.9329 32.1433 67.7814 31.6553 67.7392 31.1517L67.5288 28.6572C67.4611 27.8516 67.6767 27.0476 68.1377 26.3866C68.5988 25.7255 69.2758 25.2496 70.0498 25.0425C70.9231 24.809 71.8526 24.9355 72.6337 25.394C73.4147 25.8525 73.9835 26.6055 74.2148 27.4873L74.8379 29.866C75.0675 30.7412 74.946 31.6725 74.5 32.4578C74.054 33.2432 73.3193 33.8193 72.4553 34.0611Z" fill="#EA6F57"/>
<path d="M89.5996 31.6249C90.0589 37.0717 85.4976 35.3007 85.4976 35.3007C85.4976 35.3007 88.4124 41.2792 81.8893 40.7799C75.3662 40.2805 73.5862 35.6009 73.8392 32.9254C73.9399 31.8588 74.4893 31.0329 75.1099 30.2358C71.5352 29.6802 71.5892 27.2048 71.5892 27.2048C71.5892 27.2048 65.8579 29.4529 65.9046 25.018C65.9512 20.5831 70.4716 19.161 73.1433 19.2082C73.7062 19.22 74.264 19.3175 74.798 19.4975C76.5174 20.0631 77.8503 20.9858 80.133 21.0205C86.4376 21.1213 87.0451 27.1346 87.0451 27.1346C87.0451 27.1346 89.2893 27.939 89.5996 31.6249Z" fill="#24272D"/>
<path d="M75.8148 28.8934C76.1439 28.1049 75.778 27.1963 74.9973 26.864C74.2167 26.5316 73.317 26.9014 72.9878 27.69L72.4461 28.9873C72.1169 29.7759 72.4829 30.6845 73.2635 31.0168C74.0441 31.3491 74.9439 30.9793 75.2731 30.1908L75.8148 28.8934Z" fill="#EA6F57"/>
<path d="M74.6446 27.8416L73.875 29.682" stroke="#25282D" stroke-width="3"/>
<path opacity="0.68" d="M76.2896 42.1696L80.1819 38.2391C81.161 37.2503 82.4892 36.6947 83.8737 36.6947H88.4645L89.3021 35.848C89.9678 35.1765 90.8701 34.7992 91.8108 34.7988H94.7747C95.2938 34.7991 95.7916 35.0074 96.1584 35.3781C96.5261 35.7487 96.7324 36.2514 96.7324 36.7757C96.7316 37.2999 96.5252 37.8025 96.1584 38.173C95.7908 38.5436 95.293 38.7517 94.7739 38.7517H83.5127C82.8192 38.7517 82.1322 38.8896 81.492 39.1576C80.8514 39.4255 80.2693 39.8183 79.7791 40.3135L77.6119 42.502" fill="#CBCFD3"/>
<path d="M82.3711 41.683H85.8476" stroke="white" stroke-width="3" stroke-linecap="square"/>
<path d="M82.6064 52.7498H63.5431C62.1129 52.7498 60.7141 53.1735 59.52 53.9684C58.3259 54.7633 57.389 55.8945 56.8252 57.2218L47.2612 79.7535L55.6191 83.722L65.1798 62.6712H82.0775L82.6064 52.7498Z" fill="#9A98FD"/>
<path d="M82.6072 52.7493V62.6707H77.2975V83.6587H68.3477V58.8766C68.3477 57.2517 68.9868 55.6933 70.1245 54.5442C71.2623 53.3952 72.8055 52.7495 74.4147 52.7493H82.6072Z" fill="#9A98FD"/>
<path d="M68.3477 62.6715V58.8766C68.3477 57.2517 68.9868 55.6933 70.1245 54.5442C71.2623 53.3952 72.8055 52.7495 74.4147 52.7493" stroke="white" stroke-width="3" stroke-linecap="square"/>
<path d="M82.9285 51.6389H86.9404V63.9175H79.2563V55.3471C79.2563 54.3636 79.6432 53.4204 80.3319 52.725C81.0205 52.0296 81.955 51.6389 82.9285 51.6389Z" fill="#37426C"/>
<path d="M80.5326 41.3611H74.7783V49.2387H80.5326V41.3611Z" fill="#9A98FD"/>
<path d="M81.7919 41.9424H80.4556C79.8108 41.9424 79.2881 42.4702 79.2881 43.1214V47.047C79.2881 47.6981 79.8108 48.226 80.4556 48.226H81.7919C82.437 48.226 82.9594 47.6981 82.9594 47.047V43.1214C82.9594 42.4702 82.437 41.9424 81.7919 41.9424Z" fill="#9A98FD"/>
<path d="M80.5322 42.8965H81.1528C81.273 42.8964 81.3921 42.9202 81.5032 42.9665C81.6143 43.0129 81.7153 43.0809 81.8003 43.1666C81.8856 43.2524 81.9528 43.3542 81.9986 43.4663C82.0453 43.5784 82.069 43.6986 82.069 43.82V46.3458C82.069 46.591 81.9724 46.8261 81.8009 46.9994C81.6293 47.1728 81.3964 47.2702 81.1537 47.2702H80.533V42.8965H80.5322Z" fill="white"/>
<path d="M26.9102 49.2634L16.1812 87.4279" stroke="#475056" stroke-width="5"/>
<path d="M38.53 49.2634L27.8018 87.4279" stroke="#475056" stroke-width="5"/>
<path d="M93.4668 49.2244L104.206 87.4277" stroke="#475056" stroke-width="5"/>
<path d="M81.834 49.2244L92.5738 87.4277" stroke="#475056" stroke-width="5"/>
<path d="M81.402 42.6919C80.9762 43.0739 80.8411 46.9557 81.402 47.2393C81.9628 47.5228 84.975 47.0367 84.975 44.8961C84.975 42.7556 82.0111 42.1454 81.402 42.6919Z" fill="#EA6F57"/>
<path d="M69.8468 41.1875L68.8135 44.3012L69.5569 46.0424" stroke="#25282D" stroke-width="3"/>
<path d="M53.3709 24.5878V41.3782C53.3709 41.6414 53.2673 41.8937 53.0831 42.0798C52.8988 42.2659 52.6489 42.3704 52.3884 42.3704H51.7334C51.9939 42.3704 52.2438 42.2659 52.4281 42.0798C52.6123 41.8937 52.7159 41.6414 52.7159 41.3782V24.5878C52.7159 24.3247 52.6123 24.0723 52.4281 23.8863C52.2438 23.7002 51.9939 23.5957 51.7334 23.5957H52.3884C52.6489 23.5957 52.8988 23.7002 53.0831 23.8863C53.2673 24.0723 53.3709 24.3247 53.3709 24.5878Z" fill="#24272D"/>
<path d="M51.7338 23.5957H21.8048C21.2621 23.5957 20.8223 24.0399 20.8223 24.5878V41.3782C20.8223 41.9262 21.2621 42.3704 21.8048 42.3704H51.7338C52.2764 42.3704 52.7163 41.9262 52.7163 41.3782V24.5878C52.7163 24.0399 52.2764 23.5957 51.7338 23.5957Z" fill="#9A98FD"/>
<path d="M37.4239 31.1955C38.3906 31.1955 39.1744 30.4041 39.1744 29.4278C39.1744 28.4516 38.3906 27.6602 37.4239 27.6602C36.4571 27.6602 35.6733 28.4516 35.6733 29.4278C35.6733 30.4041 36.4571 31.1955 37.4239 31.1955Z" fill="white"/>
<path d="M38.9148 25.9788C38.9148 25.9788 38.9263 26.6287 38.5374 27.0214C38.1485 27.4141 37.5049 27.4025 37.5049 27.4025C37.5049 27.4025 37.4926 26.7527 37.8824 26.3599C38.2721 25.9672 38.9148 25.9788 38.9148 25.9788Z" fill="white"/>
<path d="M35.3181 49.2392H28.8516L33.6651 33.9329H40.1316L35.3181 49.2392Z" fill="#9A98FD"/>
<path d="M37.4785 42.3702H40.1313V33.9329L37.4785 42.3702Z" fill="#24272D"/>
<path d="M39.7622 48.1028H31.4321V49.1032H39.7622V48.1028Z" fill="#72A065"/>
<path d="M17.1562 49.2392H100.821" stroke="#475056" stroke-width="5"/>
<path d="M35.5969 42.3704C35.5761 42.4425 35.5515 42.5134 35.5232 42.5829C35.154 43.4857 34.2566 43.9669 33.5181 43.6577C33.0268 43.4518 32.7296 42.9491 32.6944 42.3687C32.6778 42.0598 32.7307 41.7512 32.8491 41.4659C33.2184 40.563 34.1166 40.0818 34.8551 40.3911C35.5314 40.6755 35.8425 41.5312 35.5969 42.3704Z" fill="white"/>
<path d="M35.5971 42.3702H32.6905C32.6739 42.0613 32.7268 41.7527 32.8452 41.4673C33.2145 40.5645 34.1127 40.0833 34.8512 40.3925C35.5316 40.6753 35.8427 41.531 35.5971 42.3702Z" fill="#24272D"/>
<path d="M44.3426 48.4125C44.6957 48.4125 44.982 48.1234 44.982 47.7668C44.982 47.4102 44.6957 47.1211 44.3426 47.1211C43.9894 47.1211 43.7031 47.4102 43.7031 47.7668C43.7031 48.1234 43.9894 48.4125 44.3426 48.4125Z" fill="#9A98FD"/>
<path d="M63.4351 62.6715H65.1798L65.256 61.1172" stroke="white" stroke-width="3"/>
<path d="M75.4775 62.3819L77.2976 62.6704V60.8647" stroke="white" stroke-width="3"/>
</svg>
