<svg width="126" height="78" viewBox="0 0 126 78" fill="none" xmlns="http://www.w3.org/2000/svg">
<path d="M65.0701 28.0339H42.2493C40.708 28.0339 39.4585 29.2841 39.4585 30.8261V41.8334C39.4585 43.3754 40.708 44.6256 42.2493 44.6256H65.0701C66.6115 44.6256 67.8609 43.3754 67.8609 41.8334V30.8261C67.8609 29.2841 66.6115 28.0339 65.0701 28.0339Z" fill="#F2F6F9"/>
<path d="M40.9455 46.5329C42.1645 46.4565 45.1004 45.8646 45.3679 41.9561H42.6529C42.514 44.5831 41.4584 45.7817 40.85 46.262C40.8254 46.2815 40.8074 46.3087 40.7988 46.3397C40.7901 46.3707 40.7912 46.4037 40.8018 46.434C40.8125 46.4643 40.8322 46.4902 40.8581 46.508C40.8839 46.5258 40.9146 46.5345 40.9455 46.5329Z" fill="#F2F6F9"/>
<path fill-rule="evenodd" clip-rule="evenodd" d="M63.6672 36.2345H43.4614V35.6626H63.6672V36.2345Z" fill="white"/>
<path fill-rule="evenodd" clip-rule="evenodd" d="M63.6672 38.7135H43.4614V38.1416H63.6672V38.7135Z" fill="white"/>
<path fill-rule="evenodd" clip-rule="evenodd" d="M63.6672 31.276H43.4614V30.8948H63.6672V31.276Z" fill="white"/>
<path fill-rule="evenodd" clip-rule="evenodd" d="M63.6672 33.755H43.4614V33.3738H63.6672V33.755Z" fill="white"/>
<path fill-rule="evenodd" clip-rule="evenodd" d="M52.9924 41.0021H43.4614V40.6208H52.9924V41.0021Z" fill="white"/>
<path d="M120.929 44.6257H99.4286C97.8907 44.6257 96.6445 45.8762 96.6445 47.4188V57.6615C96.6445 59.204 97.8907 60.4546 99.4286 60.4546H120.929C122.466 60.4546 123.713 59.204 123.713 57.6615V47.4188C123.713 45.8762 122.466 44.6257 120.929 44.6257Z" fill="#F2F6F9"/>
<path fill-rule="evenodd" clip-rule="evenodd" d="M109.606 54.2307L113.107 50.7285L113.419 51.0405L109.918 54.5427L109.606 54.2307Z" fill="white"/>
<path fill-rule="evenodd" clip-rule="evenodd" d="M113.107 54.5427L109.606 51.0405L109.918 50.7285L113.419 54.2307L113.107 54.5427Z" fill="white"/>
<path d="M122.031 62.5518C120.812 62.4787 117.876 61.9115 117.613 58.166H120.327C120.466 60.6834 121.522 61.832 122.13 62.2922C122.155 62.3112 122.173 62.3376 122.182 62.3678C122.191 62.3979 122.189 62.4299 122.178 62.4592C122.167 62.4884 122.147 62.5133 122.12 62.53C122.093 62.5467 122.062 62.5544 122.031 62.5518Z" fill="#F2F6F9"/>
<path d="M36.6713 53.2078H12.6991C11.1598 53.2078 9.91211 54.4581 9.91211 56.0005V65.0996C9.91211 66.642 11.1598 67.8923 12.6991 67.8923H36.6713C38.2105 67.8923 39.4583 66.642 39.4583 65.0996V56.0005C39.4583 54.4581 38.2105 53.2078 36.6713 53.2078Z" fill="#F2F6F9"/>
<path fill-rule="evenodd" clip-rule="evenodd" d="M33.7399 61.9801H13.5342V61.5989H33.7399V61.9801Z" fill="white"/>
<path fill-rule="evenodd" clip-rule="evenodd" d="M33.7399 64.65H13.5342V64.0781H33.7399V64.65Z" fill="white"/>
<path fill-rule="evenodd" clip-rule="evenodd" d="M33.7399 56.8312H13.5342V56.45H33.7399V56.8312Z" fill="white"/>
<path fill-rule="evenodd" clip-rule="evenodd" d="M33.7399 59.5011H13.5342V58.9292H33.7399V59.5011Z" fill="white"/>
<path d="M123.202 16.9731H90.484C88.9382 16.9731 87.6855 18.2201 87.6855 19.7581V24.6771C87.6855 26.2152 88.9382 27.4621 90.484 27.4621H123.202C124.748 27.4621 126 26.2152 126 24.6771V19.7581C126 18.2201 124.748 16.9731 123.202 16.9731Z" fill="#F2F6F9"/>
<path d="M124.509 29.7501C123.29 29.6769 120.354 29.1097 120.091 25.3643H122.805C122.944 27.8817 124 29.0303 124.608 29.4905C124.633 29.5094 124.651 29.5359 124.66 29.566C124.669 29.5961 124.667 29.6282 124.656 29.6574C124.645 29.6867 124.625 29.7115 124.598 29.7282C124.571 29.7449 124.54 29.7526 124.509 29.7501Z" fill="#F2F6F9"/>
<path d="M26.7592 20.7874H2.78695C1.24776 20.7874 0 22.04 0 23.5852V34.7719C0 36.317 1.24776 37.5697 2.78695 37.5697H26.7592C28.2984 37.5697 29.5461 36.317 29.5461 34.7719V23.5852C29.5461 22.04 28.2984 20.7874 26.7592 20.7874Z" fill="#F2F6F9"/>
<path d="M50.5752 4.19556H17.8576C16.312 4.19556 15.0591 5.44243 15.0591 6.98054V11.8996C15.0591 13.4376 16.312 14.6845 17.8576 14.6845H50.5752C52.1208 14.6845 53.3738 13.4376 53.3738 11.8996V6.98054C53.3738 5.44243 52.1208 4.19556 50.5752 4.19556Z" fill="#F2F6F9"/>
<path d="M104.33 0H71.6125C70.0668 0 68.814 1.24688 68.814 2.78498V7.70399C68.814 9.24207 70.0668 10.489 71.6125 10.489H104.33C105.876 10.489 107.129 9.24207 107.129 7.70399V2.78498C107.129 1.24688 105.876 0 104.33 0Z" fill="#F2F6F9"/>
<path fill-rule="evenodd" clip-rule="evenodd" d="M121.616 20.0241H91.6885V19.6428H121.616V20.0241Z" fill="white"/>
<path fill-rule="evenodd" clip-rule="evenodd" d="M121.616 22.5033H91.6885V22.1221H121.616V22.5033Z" fill="white"/>
<path fill-rule="evenodd" clip-rule="evenodd" d="M105.794 24.9826H91.6885V24.6013H105.794V24.9826Z" fill="white"/>
<path d="M52.6428 16.9731C51.373 16.8967 48.3148 16.3048 48.0361 12.3962H50.8642C51.0089 15.0233 52.1086 16.2219 52.7422 16.7021C52.7679 16.7217 52.7866 16.7489 52.7956 16.78C52.8046 16.8109 52.8035 16.8439 52.7924 16.8742C52.7813 16.9045 52.7608 16.9304 52.7338 16.9482C52.7069 16.966 52.675 16.9747 52.6428 16.9731Z" fill="#F2F6F9"/>
<path d="M0.724445 39.8578C1.9445 39.7815 4.88291 39.1896 5.14666 35.281H2.43332C2.29433 37.9081 1.23774 39.1066 0.628893 39.5869C0.60424 39.6064 0.586259 39.6337 0.577581 39.6647C0.568902 39.6957 0.569981 39.7287 0.58066 39.759C0.591338 39.7893 0.611054 39.8151 0.636926 39.8329C0.662798 39.8508 0.693466 39.8595 0.724445 39.8578Z" fill="#F2F6F9"/>
<path d="M70.1102 13.1588C71.3302 13.0856 74.2687 12.5184 74.5324 8.77271H71.819C71.6801 11.2903 70.6235 12.4389 70.0146 12.8992C69.99 12.9179 69.972 12.944 69.9634 12.9738C69.9547 13.0034 69.9557 13.0351 69.9664 13.0641C69.9771 13.0931 69.9968 13.1179 70.0227 13.135C70.0486 13.1521 70.0792 13.1604 70.1102 13.1588Z" fill="#F2F6F9"/>
<path fill-rule="evenodd" clip-rule="evenodd" d="M86.1602 6.93497L89.4857 3.43286L89.7819 3.74492L86.4564 7.24703L86.1602 6.93497Z" fill="white"/>
<path fill-rule="evenodd" clip-rule="evenodd" d="M89.4857 7.24703L86.1602 3.74492L86.4564 3.43286L89.7819 6.93497L89.4857 7.24703Z" fill="white"/>
<path fill-rule="evenodd" clip-rule="evenodd" d="M12.9619 30.7736L16.4624 27.2715L16.7743 27.5835L13.2738 31.0857L12.9619 30.7736Z" fill="white"/>
<path fill-rule="evenodd" clip-rule="evenodd" d="M16.4624 31.0857L12.9619 27.5835L13.2738 27.2715L16.7743 30.7736L16.4624 31.0857Z" fill="white"/>
<path fill-rule="evenodd" clip-rule="evenodd" d="M48.4176 7.05605H18.4902V6.6748H48.4176V7.05605Z" fill="white"/>
<path fill-rule="evenodd" clip-rule="evenodd" d="M48.4176 9.53505H18.4902V9.15381H48.4176V9.53505Z" fill="white"/>
<path fill-rule="evenodd" clip-rule="evenodd" d="M32.5961 12.0145H18.4902V11.6333H32.5961V12.0145Z" fill="white"/>
<path d="M67.1935 77.9995C89.1433 77.9995 106.938 77.7861 106.938 77.5229C106.938 77.2597 89.1433 77.0464 67.1935 77.0464C45.2434 77.0464 27.4492 77.2597 27.4492 77.5229C27.4492 77.7861 45.2434 77.9995 67.1935 77.9995Z" fill="#E4EFF7"/>
<path fill-rule="evenodd" clip-rule="evenodd" d="M30.499 77.4278V63.5061H30.8803V77.4278H30.499Z" fill="#37426C"/>
<path fill-rule="evenodd" clip-rule="evenodd" d="M44.9863 77.4278V63.5061H45.5582V77.4278H44.9863Z" fill="#37426C"/>
<path d="M48.4175 49.7749H26.8774V71.325H48.4175V49.7749Z" fill="#9A98FD"/>
<path d="M108.082 42.1465H48.4175V71.3249H108.082V42.1465Z" fill="#9A98FD"/>
<path fill-rule="evenodd" clip-rule="evenodd" d="M34.3117 49.584V65.4128H34.1211V49.584H34.3117Z" fill="white"/>
<path fill-rule="evenodd" clip-rule="evenodd" d="M28.9746 53.1124C28.9746 52.3225 29.6147 51.6821 30.4043 51.6821C31.1939 51.6821 31.8339 52.3225 31.8339 53.1124C31.8339 53.9024 31.1939 54.5428 30.4043 54.5428C29.6147 54.5428 28.9746 53.9024 28.9746 53.1124ZM30.4043 51.9485C29.7618 51.9485 29.2409 52.4696 29.2409 53.1124C29.2409 53.7553 29.7618 54.2764 30.4043 54.2764C31.0468 54.2764 31.5677 53.7553 31.5677 53.1124C31.5677 52.4696 31.0468 51.9485 30.4043 51.9485Z" fill="white"/>
<path d="M36.232 57.0221C36.232 57.0221 35.7116 52.0637 40.959 52.0637C46.2064 52.0637 49.9424 57.0221 49.9424 57.0221" fill="#24272D"/>
<path d="M51.2765 54.351L49.1797 53.7424L50.2478 52.319C50.2656 52.2951 50.2885 52.2769 50.3144 52.2658C50.3403 52.2549 50.3682 52.2515 50.3956 52.2562C50.4229 52.2608 50.4487 52.2732 50.4706 52.2924C50.4924 52.3115 50.5096 52.3365 50.5204 52.3652L51.2765 54.351Z" fill="#24272D"/>
<path d="M47.9266 52.3207L48.9894 53.7403L46.8926 54.351L47.6449 52.3688C47.6561 52.3392 47.6739 52.3133 47.6965 52.2936C47.7191 52.274 47.7457 52.2611 47.7739 52.2563C47.8021 52.2515 47.8309 52.2548 47.8576 52.2661C47.8843 52.2774 47.908 52.2961 47.9266 52.3207Z" fill="#24272D"/>
<path d="M49.0848 57.7845C50.6113 57.7845 51.8488 56.8026 51.8488 55.5913C51.8488 54.3801 50.6113 53.3982 49.0848 53.3982C47.5582 53.3982 46.3208 54.3801 46.3208 55.5913C46.3208 56.8026 47.5582 57.7845 49.0848 57.7845Z" fill="#24272D"/>
<path d="M52.6114 57.022H46.7021V59.1188H52.6114V57.022Z" fill="#9A98FD"/>
<path fill-rule="evenodd" clip-rule="evenodd" d="M34.1211 57.022H68.2421V57.2126H34.1211V57.022Z" fill="white"/>
<path d="M41.8535 60.0969C41.075 59.202 39.1981 61.0287 38.0234 60.288C36.1773 59.1241 39.4384 53.9983 38.2824 53.248C37.5672 52.7853 35.7454 56.4106 36.0645 59.0695C36.2617 60.7122 37.6881 61.901 39.4668 61.7814C40.523 61.7099 42.3471 60.664 41.8535 60.0969Z" fill="#24272D"/>
<path fill-rule="evenodd" clip-rule="evenodd" d="M89.21 77.4278V63.5061H89.7818V77.4278H89.21Z" fill="#37426C"/>
<path fill-rule="evenodd" clip-rule="evenodd" d="M103.888 77.4278V63.5061H104.269V77.4278H103.888Z" fill="#37426C"/>
<path d="M93.2561 43.6152L86.5591 42.6871L85.605 47.0449L92.7561 49.536C95.2035 50.3892 97.6958 48.3694 97.3797 45.7873C97.0635 43.2052 96.7257 40.6512 96.5845 40.3185C96.2884 39.624 95.2501 36.6994 88.9792 36.4344C82.7083 36.1693 79.6792 41.9548 79.6792 41.9548L92.6414 53.5893" fill="white"/>
<path d="M93.2561 43.6152L86.5591 42.6871L85.605 47.0449L92.7561 49.536C95.2035 50.3892 97.6958 48.3694 97.3797 45.7873C97.0635 43.2052 96.7257 40.6512 96.5845 40.3185C96.2884 39.624 95.2501 36.6994 88.9792 36.4344C82.7083 36.1693 79.6792 41.9548 79.6792 41.9548L92.6414 53.5893" stroke="black" stroke-width="3"/>
<path d="M89.9036 28.9747C90.3431 26.1617 88.6403 23.5455 86.0994 23.1313C83.5576 22.7171 81.1416 24.6618 80.7014 27.4749C80.2618 30.288 81.9655 32.9041 84.5065 33.3184C87.0474 33.7326 89.4634 31.7878 89.9036 28.9747Z" fill="#37426C"/>
<path d="M87.5952 38.7013C87.1739 38.6515 86.78 38.4685 86.4737 38.1798C86.1682 37.8912 85.9665 37.5127 85.9 37.1017L84.8571 30.6662C84.8109 30.4157 84.8166 30.1586 84.8733 29.9103C84.93 29.6618 85.037 29.427 85.1877 29.2195C85.3384 29.0121 85.5297 28.8362 85.7501 28.7021C85.9713 28.5681 86.2177 28.4786 86.4737 28.4389C86.7306 28.3992 86.9932 28.4102 87.2452 28.471C87.4972 28.5319 87.7346 28.6415 87.9437 28.7934C88.1519 28.9454 88.327 29.1365 88.4591 29.3558C88.5911 29.5749 88.6778 29.8179 88.7127 30.07L89.758 36.5C89.7985 36.748 89.788 37.0013 89.7289 37.2455C89.6689 37.4897 89.5611 37.72 89.4104 37.9232C89.2597 38.1264 89.0701 38.2987 88.8513 38.43C88.6333 38.5613 88.3902 38.6492 88.1373 38.6886C87.9583 38.7172 87.7759 38.7215 87.5952 38.7013Z" fill="#EA6F57"/>
<path d="M86.1618 35.5664L85.7698 35.6263C85.3141 35.696 84.848 35.664 84.4058 35.5327C83.9637 35.4015 83.5549 35.1741 83.2108 34.8669C82.8658 34.5596 82.5933 34.1801 82.4109 33.7551C82.2292 33.3301 82.1432 32.8703 82.1591 32.4082L82.2388 30.1187C82.2635 29.3794 82.5479 28.6725 83.0419 28.1225C83.535 27.5724 84.2067 27.2144 84.9372 27.1113C85.3452 27.0534 85.761 27.0768 86.1602 27.1799C86.5593 27.283 86.9338 27.464 87.2636 27.7124C87.5927 27.9608 87.8699 28.2719 88.0795 28.6278C88.289 28.9836 88.4268 29.3774 88.4842 29.7865L88.7981 32.0161C88.9136 32.8366 88.7017 33.6696 88.2077 34.3344C87.7146 34.9992 86.9792 35.4419 86.1618 35.5664Z" fill="#EA6F57"/>
<path d="M97.2926 35.4471C97.2926 35.4471 97.8338 39.71 94.2747 39.6671C88.3833 39.5951 87.4378 35.7069 87.8461 33.4606C88.0072 32.5656 88.5589 31.9028 89.1718 31.2684C85.9945 30.5685 86.2112 28.4791 86.2112 28.4791C86.2112 28.4791 80.3036 31.2919 80.6467 27.5445C80.9898 23.7971 84.4804 22.3154 86.8796 22.5226C92.4562 23.0033 92.6205 26.5726 94.1169 27.0865C102.599 30.0028 97.2926 35.4471 97.2926 35.4471Z" fill="#37426C"/>
<path d="M89.7889 31.1335C90.1716 30.4447 89.9373 29.5682 89.265 29.1759C88.5928 28.7835 87.7375 29.024 87.3549 29.7129L86.7252 30.8464C86.3426 31.5353 86.5769 32.4118 87.2491 32.8041C87.9214 33.1964 88.7766 32.956 89.1593 32.2671L89.7889 31.1335Z" fill="#EA6F57"/>
<path fill-rule="evenodd" clip-rule="evenodd" d="M86.7719 42.3374L93.5948 43.3976L93.5553 43.6717L86.7324 42.6116L86.7719 42.3374Z" fill="white"/>
<path fill-rule="evenodd" clip-rule="evenodd" d="M91.1581 40.6208L91.6883 43.2315L91.4559 43.2908L90.9258 40.6801L91.1581 40.6208Z" fill="white"/>
<path d="M81.9668 43.0376C81.9668 43.0376 84.7859 40.6708 87.147 43.6516C89.508 46.6325 85.379 46.1174 85.379 46.1174" fill="#EA6F57"/>
<path d="M87.1135 46.3421H73.3991L65.3828 40.6208H79.0971L87.1135 46.3421Z" fill="#37426C"/>
<path d="M59.4736 77.4274H68.4455L69.5765 77.4153L68.7113 73.9946L64.6527 74.3028L59.4736 77.4274Z" fill="#37426C"/>
<path d="M52.0391 60.8247L60.2326 65.926L61.273 66.5571L63.2857 60.7644L58.9485 60.2637L52.0391 60.8247Z" fill="#37426C"/>
<path d="M74.6175 48.8215L89.9728 57.5072H70.304V74.3765H61.9517V53.8875C61.9517 51.0893 64.3673 48.8215 67.3417 48.8215H74.6175Z" fill="#EA6F57"/>
<path d="M74.3683 50.7559L82.457 56.7591C85.4021 58.9443 89.4983 57.9686 91.257 54.6561L93.5944 50.3285L77.1285 41.4845C74.6207 40.1388 71.5566 40.862 69.8357 43.2069L57.7578 59.6635L64.0274 64.8411L74.3683 50.7559Z" fill="#EA6F57"/>
<path d="M108.082 49.7749H86.5415V71.325H108.082V49.7749Z" fill="#9A98FD"/>
<path fill-rule="evenodd" clip-rule="evenodd" d="M82.2243 56.7766L71.4824 48.8423L71.6394 48.6309L82.3912 56.5726L82.3959 56.5768L82.396 56.5769L82.3962 56.5771L82.3983 56.5789C82.4003 56.5807 82.4036 56.5835 82.4081 56.5873C82.4171 56.595 82.4311 56.6066 82.4501 56.6216C82.4881 56.6518 82.5461 56.6955 82.624 56.7485C82.7798 56.8543 83.015 56.9967 83.3293 57.1395C83.9573 57.425 84.9019 57.7125 86.1602 57.7125V57.9756C84.8604 57.9756 83.8787 57.6783 83.2199 57.3789C82.8907 57.2293 82.6424 57.0793 82.4755 56.9658C82.3921 56.9091 82.3289 56.8615 82.2862 56.8277C82.2648 56.8107 82.2485 56.7972 82.2373 56.7878C82.2317 56.783 82.2274 56.7793 82.2243 56.7766C82.2243 56.7766 82.2243 56.7766 82.2243 56.7766Z" fill="white"/>
<path fill-rule="evenodd" clip-rule="evenodd" d="M65.4803 49.2027C65.4803 49.2027 65.4803 49.2027 65.4316 49.0897C65.3828 48.9767 65.3828 48.9767 65.3828 48.9767L65.3831 48.9765L65.3838 48.9763L65.3862 48.9754C65.3882 48.9747 65.3911 48.9737 65.3949 48.9724C65.4025 48.9697 65.4135 48.9659 65.4278 48.9611C65.4563 48.9515 65.4978 48.938 65.5505 48.9218C65.6558 48.8894 65.8064 48.8464 65.9883 48.8034C66.3513 48.7176 66.8436 48.6309 67.3535 48.6309H71.6733V48.8739H67.3535C66.8741 48.8739 66.4055 48.9558 66.0547 49.0387C65.8799 49.08 65.7354 49.1213 65.635 49.1522C65.5848 49.1676 65.5457 49.1804 65.5193 49.1893C65.5062 49.1937 65.4962 49.1971 65.4896 49.1994C65.4863 49.2006 65.4839 49.2014 65.4823 49.202L65.4807 49.2026L65.4803 49.2027Z" fill="white"/>
<path fill-rule="evenodd" clip-rule="evenodd" d="M61.9517 63.5059V53.7798H62.1423V63.5059H61.9517Z" fill="white"/>
<path d="M78.4103 30.7041H66.08C65.695 30.7041 65.3828 31.0139 65.3828 31.396V40.1198C65.3828 40.5019 65.695 40.8117 66.08 40.8117H78.4103C78.7954 40.8117 79.1075 40.5019 79.1075 40.1198V31.396C79.1075 31.0139 78.7954 30.7041 78.4103 30.7041Z" fill="#37426C"/>
<path fill-rule="evenodd" clip-rule="evenodd" d="M93.7853 49.7749V65.6037H93.5947V49.7749H93.7853Z" fill="white"/>
<path fill-rule="evenodd" clip-rule="evenodd" d="M88.6387 53.1124C88.6387 52.3225 89.2785 51.6821 90.0683 51.6821C90.8582 51.6821 91.498 52.3225 91.498 53.1124C91.498 53.9024 90.8582 54.5428 90.0683 54.5428C89.2785 54.5428 88.6387 53.9024 88.6387 53.1124ZM90.0683 51.9485C89.4255 51.9485 88.9049 52.4696 88.9049 53.1124C88.9049 53.7553 89.4255 54.2764 90.0683 54.2764C90.7111 54.2764 91.2317 53.7553 91.2317 53.1124C91.2317 52.4696 90.7111 51.9485 90.0683 51.9485Z" fill="white"/>
<path fill-rule="evenodd" clip-rule="evenodd" d="M91.3071 49.584H108.272V49.7746H91.3071V49.584Z" fill="white"/>
<path d="M72.245 36.8069C72.982 36.8069 73.5793 36.2092 73.5793 35.4719C73.5793 34.7346 72.982 34.137 72.245 34.137C71.5081 34.137 70.9106 34.7346 70.9106 35.4719C70.9106 36.2092 71.5081 36.8069 72.245 36.8069Z" fill="white"/>
<path d="M73.389 33.0194C73.389 33.0194 73.3113 33.5376 72.9429 33.7855C72.5744 34.0335 72.0547 33.9202 72.0547 33.9202C72.0547 33.9202 72.1324 33.4021 72.5009 33.1533C72.8693 32.9045 73.389 33.0194 73.389 33.0194Z" fill="white"/>
</svg>
