<svg width="126" height="80" viewBox="0 0 126 80" fill="none" xmlns="http://www.w3.org/2000/svg">
<path d="M10.1294 28.2436C10.036 29.2223 9.62917 30.1447 8.96924 30.8739C8.30923 31.603 7.43142 32.0998 6.46629 32.2906C5.50112 32.4814 4.50011 32.3559 3.61204 31.9327C2.72397 31.5096 1.99625 30.8114 1.53705 29.9419C1.43838 29.7552 1.3525 29.5619 1.28 29.3635C1.04679 28.7194 0.961535 28.0311 1.03055 27.3496C1.09957 26.6681 1.32109 26.0108 1.67872 25.4265C2.03636 24.8421 2.52093 24.3456 3.09659 23.9737C3.67225 23.6017 4.32425 23.3639 5.00433 23.2779C5.6844 23.1918 6.37514 23.2597 7.02542 23.4765C7.67572 23.6933 8.26886 24.0534 8.76096 24.5302C9.25313 25.0071 9.63166 25.5884 9.86849 26.2311C10.1054 26.874 10.1945 27.5617 10.1294 28.2436Z" fill="#EDF1F5"/>
<path d="M57.075 60.2787C57.0157 60.9057 56.8269 61.5136 56.5205 62.064C56.2141 62.6143 55.7967 63.0952 55.2949 63.4762C55.1304 63.6014 54.9576 63.7155 54.7779 63.8177C53.8879 64.3222 52.8541 64.5136 51.8423 64.3614C50.8304 64.2091 49.8989 63.722 49.197 62.978C48.4951 62.234 48.0633 61.2762 47.9708 60.2579C47.8784 59.2396 48.1306 58.2197 48.687 57.3616C49.2435 56.5036 50.072 55.8569 51.0399 55.5251C52.0078 55.1934 53.0592 55.1958 54.0256 55.532C54.992 55.8681 55.8175 56.5186 56.37 57.3792C56.9225 58.2398 57.17 59.2608 57.0729 60.2787H57.075Z" fill="#EDF1F5"/>
<path d="M74.189 45.3698C74.1598 45.6833 74.0658 45.9874 73.9127 46.2627C73.7596 46.538 73.551 46.7786 73.3003 46.9693C73.2177 47.0315 73.1316 47.0885 73.0419 47.14C72.7755 47.2905 72.4815 47.386 72.1781 47.421C71.8741 47.4561 71.5665 47.4299 71.2724 47.3441C70.979 47.2583 70.7056 47.1145 70.4686 46.9213C70.2315 46.7282 70.0356 46.4895 69.8924 46.2194C69.8432 46.1259 69.8004 46.0291 69.7643 45.9298C69.6476 45.6078 69.6051 45.2636 69.6395 44.9229C69.6741 44.5821 69.7848 44.2535 69.9637 43.9613C70.1424 43.6691 70.3848 43.4208 70.6726 43.2349C70.9604 43.0489 71.2866 42.9301 71.6263 42.887C71.9667 42.844 72.312 42.8779 72.6367 42.9863C72.9621 43.0947 73.259 43.2748 73.5047 43.5131C73.7511 43.7515 73.9398 44.0423 74.0587 44.3636C74.1769 44.685 74.2217 45.0289 74.189 45.3698Z" fill="#EDF1F5"/>
<path d="M18.4516 75.6489C18.4218 75.9627 18.3275 76.2665 18.1745 76.5419C18.0214 76.8172 17.8129 77.0577 17.5622 77.2484C17.48 77.311 17.3936 77.3679 17.3038 77.4191C17.0374 77.57 16.7435 77.6667 16.4393 77.7016C16.1351 77.7372 15.8269 77.7116 15.533 77.6255C15.2389 77.5394 14.9653 77.3956 14.7281 77.2021C14.4909 77.0086 14.295 76.7688 14.1522 76.4985C14.1026 76.4052 14.0597 76.3085 14.024 76.2089C13.9074 75.8866 13.8648 75.5429 13.8993 75.2021C13.9338 74.8613 14.0445 74.5326 14.2234 74.2402C14.4022 73.9484 14.6445 73.7001 14.9323 73.5137C15.2201 73.328 15.5461 73.2092 15.8862 73.1658C16.2262 73.1231 16.5716 73.1573 16.8967 73.2654C17.2219 73.3736 17.5184 73.5536 17.7645 73.7919C18.0106 74.031 18.1999 74.3213 18.3183 74.6429C18.4367 74.9638 18.4813 75.3081 18.4487 75.6489H18.4516Z" fill="#EDF1F5"/>
<path d="M105.03 23.4592C105.001 23.7727 104.906 24.0765 104.753 24.3517C104.601 24.6269 104.392 24.8674 104.142 25.058C104.059 25.1204 103.973 25.1775 103.883 25.2287C103.617 25.3795 103.324 25.4753 103.02 25.5106C102.715 25.546 102.408 25.52 102.114 25.4343C101.82 25.3486 101.547 25.2048 101.31 25.0117C101.073 24.8184 100.877 24.5797 100.734 24.3095C100.685 24.2162 100.642 24.1197 100.606 24.0206C100.489 23.6986 100.446 23.3544 100.481 23.0137C100.515 22.6729 100.626 22.3443 100.805 22.0521C100.984 21.7599 101.226 21.5117 101.514 21.3257C101.802 21.1398 102.128 21.0209 102.468 20.9778C102.808 20.9348 103.153 20.9687 103.478 21.0771C103.803 21.1855 104.1 21.3656 104.346 21.6039C104.592 21.8424 104.781 22.1331 104.9 22.4545C105.018 22.7758 105.063 23.1197 105.03 23.4607V23.4592Z" fill="#EDF1F5"/>
<path d="M125.026 11.0953C124.996 11.4087 124.902 11.7126 124.749 11.9877C124.596 12.2629 124.388 12.5034 124.137 12.694C124.055 12.7566 123.968 12.8137 123.878 12.8648C123.612 13.0157 123.319 13.1116 123.015 13.1469C122.711 13.1822 122.403 13.1561 122.109 13.0703C121.816 12.9844 121.542 12.8404 121.305 12.647C121.068 12.4535 120.872 12.2145 120.73 11.9441C120.68 11.851 120.637 11.7545 120.602 11.6552C120.485 11.3331 120.442 10.9889 120.476 10.648C120.51 10.3071 120.622 9.97823 120.8 9.68588C120.979 9.39353 121.221 9.14507 121.509 8.95901C121.797 8.77289 122.123 8.65392 122.463 8.61088C122.803 8.56783 123.149 8.60177 123.474 8.71027C123.799 8.81878 124.096 8.999 124.342 9.23757C124.588 9.47613 124.777 9.76699 124.896 10.0886C125.014 10.4102 125.058 10.7543 125.026 11.0953Z" fill="#EDF1F5"/>
<path d="M4.55965 13.4715C4.53008 13.7849 4.43579 14.0888 4.28271 14.364C4.12963 14.6392 3.9211 14.8797 3.67029 15.0702C3.21303 15.4195 2.64039 15.583 2.06746 15.5277C1.61762 15.4847 1.19063 15.3094 0.840496 15.024C0.490352 14.7385 0.232776 14.3557 0.100336 13.924C-0.0321037 13.4923 -0.0334608 13.031 0.0964363 12.5985C0.226333 12.1661 0.481651 11.7818 0.830108 11.4943C1.17856 11.2068 1.60451 11.029 2.05409 10.9834C2.50367 10.9378 2.9567 11.0263 3.35589 11.2379C3.75508 11.4496 4.08251 11.7748 4.29677 12.1723C4.51104 12.5699 4.60252 13.0219 4.55965 13.4715Z" fill="#EDF1F5"/>
<path d="M106.732 77.9333C106.697 78.3069 106.569 78.6662 106.361 78.9792C106.153 79.2923 105.871 79.5492 105.54 79.727C105.209 79.9049 104.84 79.9988 104.464 80.0002C104.088 80.0017 103.717 79.9099 103.386 79.7341C102.982 79.5186 102.651 79.187 102.437 78.7829C102.388 78.6897 102.345 78.5929 102.308 78.4933C102.192 78.171 102.149 77.8273 102.184 77.4865C102.218 77.1457 102.329 76.817 102.508 76.5246C102.686 76.2329 102.928 75.9846 103.217 75.7981C103.505 75.6124 103.831 75.4936 104.17 75.4502C104.511 75.4075 104.856 75.4417 105.181 75.5498C105.506 75.658 105.803 75.838 106.049 76.0763C106.295 76.3154 106.484 76.6057 106.603 76.9273C106.721 77.2482 106.766 77.5925 106.733 77.9333H106.732Z" fill="#EDF1F5"/>
<path d="M60.679 70.1236C60.6495 70.437 60.5553 70.7408 60.4024 71.016C60.2494 71.2912 60.0411 71.5317 59.7904 71.7223C59.7081 71.785 59.6218 71.8419 59.5319 71.8931C59.2658 72.0439 58.972 72.14 58.6681 72.1749C58.3641 72.2104 58.0562 72.1841 57.7626 72.0987C57.4689 72.0126 57.1955 71.8689 56.9585 71.6754C56.7216 71.4819 56.526 71.2428 56.3832 70.9724C56.3337 70.8793 56.2909 70.7827 56.255 70.6836C56.1382 70.3615 56.0953 70.0172 56.1296 69.6763C56.164 69.3354 56.2746 69.0066 56.4534 68.7142C56.6321 68.4218 56.8745 68.1734 57.1624 67.9873C57.4503 67.8012 57.7764 67.6822 58.1166 67.6392C58.4568 67.5962 58.8023 67.6301 59.1275 67.7386C59.4528 67.8471 59.7494 68.0273 59.9955 68.2659C60.2416 68.5045 60.4308 68.7953 60.5491 69.1169C60.6675 69.4385 60.7118 69.7826 60.679 70.1236Z" fill="#EDF1F5"/>
<path d="M125.981 71.1071C125.922 71.7339 125.734 72.3423 125.427 72.8923C125.121 73.443 124.703 73.9239 124.201 74.3046C124.037 74.4298 123.864 74.5444 123.684 74.6468C122.828 75.1335 121.837 75.3299 120.859 75.2068C119.881 75.0837 118.969 74.6482 118.26 73.9645C117.755 73.4793 117.368 72.8852 117.13 72.227C116.896 71.5831 116.812 70.8946 116.881 70.2131C116.95 69.5317 117.171 68.8744 117.529 68.29C117.886 67.7057 118.371 67.2091 118.946 66.8372C119.522 66.4652 120.174 66.2275 120.854 66.1414C121.534 66.0553 122.225 66.1232 122.876 66.34C123.526 66.5567 124.119 66.9169 124.611 67.3937C125.103 67.8706 125.482 68.4519 125.719 69.0947C125.955 69.7375 126.044 70.4252 125.979 71.1071H125.981Z" fill="#EDF1F5"/>
<path d="M78.1453 4.99966C78.0862 5.62666 77.8975 6.23455 77.5906 6.78492C77.2845 7.3353 76.8672 7.81612 76.3652 8.19713C76.2007 8.32278 76.0284 8.43691 75.8482 8.53865C74.9916 9.02503 74.0005 9.22147 73.0228 9.0986C72.0452 8.97579 71.1334 8.54022 70.4238 7.85704C70.0731 7.51922 69.7783 7.12804 69.5501 6.69801C69.2192 6.06984 69.0392 5.37331 69.0244 4.6636C69.0096 3.95388 69.1604 3.25046 69.4647 2.60903C69.9257 1.63869 70.7141 0.861688 71.6913 0.414566C72.6689 -0.0325566 73.7726 -0.121204 74.8094 0.164197C75.8454 0.449599 76.7476 1.09079 77.3578 1.97512C77.968 2.85945 78.2472 3.93035 78.1453 4.99966Z" fill="#EDF1F5"/>
<path fill-rule="evenodd" clip-rule="evenodd" d="M23.3824 65.0568L9.36063 75.9399L3.4209 68.2991L17.4426 57.416L23.3824 65.0568Z" fill="#EDF1F5"/>
<path fill-rule="evenodd" clip-rule="evenodd" d="M90.4986 47.8587L57.2686 27.9033L62.2563 19.6106L95.4863 39.566L90.4986 47.8587Z" fill="#EDF1F5"/>
<path fill-rule="evenodd" clip-rule="evenodd" d="M103.562 62.1694L80.9923 75.5925L76.04 67.2786L98.61 53.8555L103.562 62.1694Z" fill="#EDF1F5"/>
<path fill-rule="evenodd" clip-rule="evenodd" d="M30.5703 38.7801L36.8798 29.2346L44.9593 34.5668L38.6498 44.1122L30.5703 38.7801Z" fill="#EDF1F5"/>
<path fill-rule="evenodd" clip-rule="evenodd" d="M108.029 37.5425L114.338 21.9443L123.315 25.5696L117.007 41.1677L108.029 37.5425Z" fill="#EDF1F5"/>
<path fill-rule="evenodd" clip-rule="evenodd" d="M115.979 26.3994L91.7905 11.8194L96.7919 3.53491L120.98 18.1149L115.979 26.3994Z" fill="#EDF1F5"/>
<path fill-rule="evenodd" clip-rule="evenodd" d="M39.2678 19.4032L16.1318 11.5085L19.261 2.35254L42.397 10.2473L39.2678 19.4032Z" fill="#EDF1F5"/>
<path d="M44.3542 53.3454C43.9539 57.5855 41.9601 61.5163 38.7745 64.3458C38.4545 64.6304 38.1244 64.9022 37.7841 65.1612C37.1765 65.6243 36.5385 66.046 35.8743 66.4234C32.8961 68.117 29.4709 68.8602 26.058 68.5536L25.9376 68.5429C23.3332 68.2948 20.822 67.4455 18.6022 66.0618C16.3823 64.6782 14.5146 62.7981 13.1463 60.5699C12.9564 60.2597 12.7754 59.9431 12.603 59.6201C11.3795 57.2996 10.713 54.7265 10.6563 52.1042C10.5996 49.482 11.1542 46.8826 12.2762 44.5114C15.2355 38.2744 21.8711 34.2488 29.1454 34.9425C38.4335 35.8276 45.2407 44.0674 44.3542 53.3454Z" fill="#EDF1F5"/>
<path d="M10.1296 73.0784C10.0708 73.706 9.88229 74.315 9.5759 74.8657C9.26943 75.4171 8.85181 75.8988 8.34946 76.2802C8.18497 76.4054 8.01223 76.5192 7.83251 76.6217C7.30018 76.9233 6.71272 77.1147 6.10489 77.1852C5.49707 77.2556 4.88127 77.2037 4.29399 77.0322C3.70672 76.86 3.15992 76.5726 2.68601 76.1855C2.2121 75.7992 1.82074 75.3211 1.5351 74.7803C1.43629 74.5939 1.35041 74.4004 1.27805 74.2019C1.04484 73.558 0.959582 72.8692 1.0286 72.1883C1.09762 71.5067 1.31914 70.8492 1.67678 70.2649C2.0344 69.6805 2.51898 69.184 3.09464 68.8121C3.6703 68.4401 4.3223 68.2023 5.00237 68.1163C5.68245 68.0302 6.3732 68.0981 7.02347 68.3149C7.67372 68.5316 8.26693 68.8918 8.75903 69.3686C9.2512 69.8454 9.62965 70.4267 9.86656 71.0695C10.1035 71.7123 10.1926 72.4004 10.1275 73.082L10.1296 73.0784Z" fill="#EDF1F5"/>
<path d="M121.354 52.8022C121.118 55.2524 120.347 57.6213 119.097 59.7426C117.847 61.8639 116.148 63.6863 114.119 65.082C112.09 66.4776 109.779 67.4128 107.349 67.8219C104.921 68.231 102.431 68.1041 100.056 67.4501C97.6812 66.796 95.4781 65.6307 93.6012 64.0359C91.7249 62.4412 90.2196 60.4554 89.1921 58.218C88.1653 55.9806 87.6398 53.5457 87.6541 51.0841C87.6683 48.6225 88.2209 46.1937 89.274 43.9682C92.2333 37.7312 98.8689 33.7056 106.143 34.3993C115.431 35.2844 122.242 43.5242 121.354 52.8022Z" fill="#EDF1F5"/>
<path d="M65.2603 20.0292C65.0244 22.4801 64.2546 24.8496 63.005 26.9717C61.7554 29.0938 60.0562 30.9169 58.0267 32.3132C55.9971 33.7095 53.6864 34.6451 51.2566 35.0545C48.8268 35.4638 46.3368 35.337 43.9613 34.6827C41.5858 34.0285 39.3823 32.8629 37.5054 31.2675C35.6286 29.6722 34.1238 27.6858 33.0968 25.4477C32.0696 23.2097 31.5451 20.7742 31.5599 18.312C31.5747 15.8499 32.1284 13.4208 33.1824 11.1953C36.1416 4.95687 42.7766 0.932644 50.0516 1.62635C59.3375 2.51146 66.1468 10.7513 65.2603 20.0292Z" fill="#EDF1F5"/>
<path d="M23.0119 7.48349C22.9184 8.46208 22.5114 9.38447 21.8514 10.1135C21.1914 10.8425 20.3136 11.3393 19.3484 11.53C18.3833 11.7207 17.3824 11.5951 16.4944 11.1719C15.6064 10.7488 14.8787 10.0506 14.4195 9.18112C14.3206 8.99457 14.2349 8.80126 14.1632 8.60268C13.9303 7.9587 13.8453 7.27061 13.9145 6.58935C13.9837 5.90809 14.2053 5.25111 14.5629 4.66699C14.9206 4.08289 15.4051 3.58662 15.9806 3.2149C16.5561 2.84319 17.2079 2.60554 17.8878 2.51955C18.5677 2.43356 19.2582 2.50143 19.9083 2.71813C20.5584 2.93483 21.1513 3.29483 21.6433 3.77147C22.1353 4.24811 22.5138 4.8292 22.7507 5.47174C22.9876 6.11428 23.0768 6.80182 23.0119 7.48349Z" fill="#EDF1F5"/>
<path d="M81.4968 72.5532C81.4156 73.4085 81.0945 74.2238 80.5711 74.9047C80.047 75.5863 79.3414 76.1057 78.5354 76.4039C77.7286 76.7027 76.8549 76.7674 76.0133 76.5917C75.1716 76.4159 74.3962 76.0068 73.7774 75.4106C73.2733 74.9254 72.8866 74.3313 72.6481 73.6731C72.4153 73.0292 72.3298 72.3412 72.3996 71.6596C72.4687 70.9786 72.6901 70.3216 73.0476 69.7376C73.405 69.1534 73.8899 68.6571 74.4653 68.2854C75.0406 67.9136 75.6921 67.6759 76.3721 67.5899C77.0521 67.5039 77.7428 67.5717 78.3929 67.7883C79.043 68.0049 79.6355 68.3649 80.1275 68.8414C80.6195 69.3181 80.9983 69.8991 81.2355 70.5415C81.4726 71.1843 81.5616 71.8716 81.4968 72.5532Z" fill="#EDF1F5"/>
<path d="M123.733 22.8391C123.64 23.8177 123.233 24.7402 122.573 25.4693C121.913 26.1984 121.035 26.6953 120.07 26.886C119.105 27.0769 118.104 26.9513 117.216 26.5282C116.328 26.105 115.6 25.4068 115.141 24.5374C115.042 24.3507 114.956 24.1574 114.884 23.959C114.65 23.3148 114.566 22.6265 114.635 21.9451C114.704 21.2636 114.925 20.6063 115.283 20.022C115.64 19.4376 116.125 18.941 116.7 18.5691C117.276 18.1972 117.928 17.9594 118.608 17.8734C119.289 17.7873 119.979 17.8552 120.629 18.072C121.28 18.2887 121.873 18.6488 122.365 19.1257C122.857 19.6025 123.236 20.1838 123.473 20.8266C123.709 21.4694 123.798 22.1572 123.733 22.8391Z" fill="#EDF1F5"/>
<path d="M97.5426 7.15115C97.4835 7.77812 97.2948 8.38602 96.9879 8.93636C96.6817 9.48678 96.2644 9.96761 95.7624 10.3486C95.598 10.4743 95.4256 10.5884 95.2455 10.6901C94.3889 11.1765 93.3977 11.373 92.4201 11.2501C91.4424 11.1273 90.5303 10.6917 89.8211 10.0085C89.3169 9.52321 88.9303 8.92882 88.6918 8.27104C88.4589 7.62707 88.3742 6.93901 88.4432 6.25777C88.5123 5.57653 88.7338 4.91955 89.0912 4.33544C89.4487 3.75132 89.9336 3.25503 90.5089 2.88329C91.0843 2.51154 91.7365 2.27385 92.4158 2.18781C93.0958 2.10177 93.7865 2.16958 94.4366 2.38622C95.0867 2.60286 95.6791 2.96278 96.1719 3.43936C96.6639 3.91594 97.042 4.49698 97.2791 5.13947C97.5162 5.78197 97.6052 6.46948 97.5404 7.15115H97.5426Z" fill="#EDF1F5"/>
<path d="M88.1349 42.5769L88.5699 41.7864C88.7529 41.3918 88.9153 40.9881 89.057 40.5769C89.2763 39.9315 89.1994 39.0116 90.1599 38.1428C91.1205 37.2741 89.6999 37.5139 89.22 37.9144C88.8199 38.2481 88.4944 39.1951 88.0964 39.4086C88.0053 39.28 87.9333 39.1391 87.8828 38.9902L87.0127 34.9162C86.9998 34.8509 86.9642 34.7924 86.9123 34.7513C86.8596 34.7104 86.7941 34.6895 86.7278 34.6928L86.5683 34.6978C86.5299 34.6998 86.4922 34.7099 86.4573 34.7274C86.4231 34.7449 86.3925 34.7694 86.3683 34.7994C86.3433 34.8293 86.3255 34.864 86.3156 34.9013C86.3049 34.9386 86.3027 34.9776 86.3084 35.0158C86.4423 35.8874 86.9073 38.4808 86.8603 38.4822L86.7642 38.5278L85.4298 34.4011C85.4113 34.3359 85.3692 34.2799 85.3123 34.2436C85.2546 34.2074 85.1862 34.1935 85.1193 34.2047L84.9057 34.2403C84.8687 34.2461 84.8331 34.2594 84.8017 34.2795C84.7697 34.2995 84.7426 34.3257 84.7213 34.3567C84.7006 34.3875 84.6857 34.4225 84.6786 34.4593C84.6714 34.496 84.6721 34.5338 84.68 34.5704C84.885 35.5195 85.8442 38.6779 85.7958 38.6807L85.6783 38.7206L84.2307 35.3054C84.2107 35.2374 84.1652 35.1797 84.1032 35.1442C84.042 35.1087 83.9693 35.0981 83.9003 35.1147L83.7301 35.1567C83.6945 35.1654 83.661 35.1809 83.6318 35.2025C83.6026 35.2241 83.5777 35.2512 83.5585 35.2824C83.54 35.3136 83.5272 35.3482 83.5215 35.3843C83.5158 35.4203 83.5179 35.4571 83.5265 35.4925L84.8288 38.8522L84.7092 38.9276L83.3449 36.5007C83.3185 36.4382 83.2701 36.3876 83.2089 36.3582C83.1484 36.3288 83.0786 36.3228 83.0131 36.3413L82.9319 36.3655C82.8621 36.3859 82.8037 36.4325 82.7681 36.4955C82.7325 36.5585 82.7225 36.6328 82.7411 36.7028C82.8721 37.2008 83.5243 38.246 83.9038 39.3353C84.2008 40.1791 84.2214 40.8551 84.7113 41.8768C84.9178 42.3101 85.3109 42.8245 85.5252 43.1112" fill="#EF6E45"/>
<path d="M112.874 65.8806C109.707 67.6747 106.045 68.3985 102.433 67.9444C98.8216 67.4903 95.4529 65.8825 92.8297 63.3604L93.0334 58.143L86.4967 57.0644C85.5319 56.7996 84.6931 56.1999 84.1313 55.3728C83.5695 54.5458 83.321 53.5457 83.4306 52.5521L83.9654 42.3108L89.1299 42.6665L89.2723 43.97L90.0705 50.8488C90.0705 50.8488 95.4736 51.524 102.847 53.4101C110.024 55.2465 112.138 61.6151 112.874 65.8806Z" fill="#9A98FD"/>
<path d="M107.251 47.0238C109.23 44.5021 108.948 40.979 106.621 39.1548C104.294 37.3306 100.802 37.8961 98.8221 40.4177C96.8426 42.9394 97.1246 46.4625 99.4523 48.2867C101.78 50.1109 105.271 49.5455 107.251 47.0238Z" fill="#37426C"/>
<path d="M99.4472 55.4488C99.0584 55.1676 98.7721 54.7676 98.6319 54.3093C98.4909 53.8509 98.5037 53.3593 98.6675 52.9088L101.238 45.8564C101.326 45.5703 101.471 45.3051 101.665 45.0768C101.857 44.8485 102.096 44.662 102.364 44.5285C102.632 44.395 102.924 44.3174 103.223 44.3004C103.522 44.2834 103.821 44.3274 104.103 44.4296C104.385 44.5319 104.642 44.6903 104.86 44.8952C105.078 45.1001 105.253 45.3472 105.372 45.6215C105.492 45.8958 105.554 46.1916 105.556 46.4908C105.557 46.79 105.498 47.0864 105.381 47.3619L102.81 54.415C102.693 54.7348 102.503 55.0231 102.256 55.2574C102.009 55.4917 101.711 55.6655 101.385 55.7655C101.059 55.8654 100.715 55.8886 100.379 55.8333C100.042 55.778 99.7234 55.6457 99.4472 55.4467V55.4488Z" fill="#EF6E45"/>
<path d="M99.8835 51.5165L99.4563 51.3578C98.9593 51.1735 98.5093 50.8821 98.1383 50.5042C97.7666 50.1264 97.4839 49.6714 97.308 49.1717C97.1329 48.672 97.0702 48.1398 97.1243 47.6131C97.1784 47.0863 97.3479 46.5779 97.6206 46.124L98.9735 43.8757C99.41 43.1496 100.089 42.6004 100.89 42.3246C101.691 42.0487 102.564 42.0639 103.356 42.3673C104.249 42.7098 104.969 43.3926 105.359 44.2656C105.747 45.1387 105.774 46.1304 105.431 47.0227L104.505 49.4297C104.165 50.3155 103.489 51.0316 102.624 51.4223C101.758 51.813 100.774 51.8468 99.8835 51.5165Z" fill="#EF6E45"/>
<path d="M100.696 46.2131C100.911 46.2131 101.087 46.0382 101.087 45.8225C101.087 45.6068 100.911 45.4319 100.696 45.4319C100.48 45.4319 100.305 45.6068 100.305 45.8225C100.305 46.0382 100.48 46.2131 100.696 46.2131Z" fill="white"/>
<path d="M99.0696 45.3913C99.2854 45.3913 99.4605 45.2164 99.4605 45.0007C99.4605 44.785 99.2854 44.6101 99.0696 44.6101C98.8539 44.6101 98.6787 44.785 98.6787 45.0007C98.6787 45.2164 98.8539 45.3913 99.0696 45.3913Z" fill="white"/>
<path d="M110.921 57.5054C110.921 57.5054 109.118 62.0156 105.606 60.012C99.7919 56.6943 100.986 52.3314 102.625 50.3356C103.278 49.5409 104.192 49.1887 105.145 48.8998C102.373 46.4573 103.736 44.512 103.736 44.512C103.736 44.512 96.322 44.036 98.7195 40.522C101.117 37.0079 105.399 37.4682 107.669 38.9944C112.946 42.5433 111.15 46.1606 112.354 47.4925C119.18 55.0507 110.921 57.5054 110.921 57.5054Z" fill="#37426C"/>
<path d="M105.924 49.2091C106.691 48.7434 106.934 47.7451 106.468 46.9792C106.002 46.2134 105.003 45.97 104.237 46.4356L102.975 47.2023C102.209 47.6679 101.965 48.6662 102.431 49.4322C102.897 50.198 103.896 50.4414 104.662 49.9758L105.924 49.2091Z" fill="#EF6E45"/>
<path d="M100.178 48.3009C100.197 48.5495 100.116 48.7954 99.9539 48.9845C99.7908 49.1737 99.5601 49.2906 99.3109 49.3094C99.0624 49.3283 98.816 49.2476 98.6274 49.0851C98.4379 48.9227 98.3205 48.6918 98.3019 48.4432C98.2621 47.9252 98.7869 47.9302 99.3045 47.8903C99.8222 47.8505 100.138 47.7829 100.178 48.3009Z" fill="white"/>
<path d="M59.2775 31.3761L58.6908 31.845C58.0833 32.3081 57.4453 32.7298 56.7811 33.1072C54.8139 34.2213 52.6429 34.9294 50.3967 35.1898C48.1506 35.45 45.8751 35.2571 43.7049 34.6225C41.5347 33.9878 39.5142 32.9244 37.7629 31.4951C36.0117 30.0658 34.5654 28.2998 33.5098 26.3017C36.1914 24.3323 40.6808 21.9794 46.4236 22.4597C56.0291 23.2672 59.2775 31.3761 59.2775 31.3761Z" fill="#9A98FD"/>
<path d="M47.8326 26.4606C47.7245 26.4609 47.6166 26.4545 47.5093 26.4414C46.7968 26.3566 46.1472 25.9925 45.7034 25.4292C45.2595 24.8659 45.0577 24.1495 45.1425 23.4375L46.4242 12.6647C46.5091 11.9526 46.8737 11.3035 47.4377 10.86C47.717 10.6404 48.0368 10.478 48.3788 10.3819C48.721 10.2858 49.0786 10.258 49.4315 10.3C49.7844 10.3421 50.1255 10.4531 50.4354 10.627C50.7453 10.8007 51.0178 11.0338 51.2376 11.3128C51.4573 11.5918 51.62 11.9114 51.7161 12.2532C51.8123 12.595 51.8401 12.9525 51.798 13.305L50.5163 24.0778C50.4378 24.7342 50.1214 25.3389 49.6269 25.778C49.1324 26.2171 48.4941 26.4599 47.8326 26.4606Z" fill="#EF6E45"/>
<path d="M50.0977 20.957L50.6716 21.021C51.3389 21.0963 52.0147 21.0235 52.6508 20.8081C53.2868 20.5927 53.8676 20.2398 54.3516 19.7746C54.8357 19.3094 55.2112 18.7433 55.4514 18.1166C55.6916 17.4899 55.7906 16.818 55.7414 16.1487L55.4979 12.8331C55.4191 11.7623 54.9654 10.7534 54.2163 9.98366C53.4671 9.21389 52.4704 8.73242 51.4014 8.62392C50.1954 8.50168 48.9903 8.86312 48.051 9.62876C47.1117 10.3944 46.5153 11.5015 46.3929 12.7065L46.0625 15.9573C45.9409 17.1537 46.2964 18.3497 47.0519 19.2857C47.8074 20.2217 48.9018 20.8223 50.0977 20.957Z" fill="#EF6E45"/>
<path d="M47.4387 17.4331L47.4393 17.4326C48.2298 16.9468 48.4764 15.9125 47.9901 15.1226L47.4905 14.3112C47.0042 13.5214 45.9691 13.275 45.1787 13.7609L45.1781 13.7613C44.3876 14.2472 44.141 15.2814 44.6274 16.0713L45.1269 16.8827C45.6133 17.6726 46.6482 17.919 47.4387 17.4331Z" fill="#EF6E45"/>
<path d="M50.5535 16.7852C50.4751 16.93 50.426 17.0889 50.409 17.2527C50.3921 17.4164 50.4075 17.5819 50.4546 17.7397C50.5016 17.8976 50.5793 18.0446 50.6832 18.1723C50.7871 18.3002 50.9152 18.4063 51.0601 18.4846C51.2051 18.563 51.364 18.612 51.5279 18.629C51.6918 18.6459 51.8575 18.6305 52.0154 18.5834C52.1733 18.5365 52.3204 18.4588 52.4483 18.355C52.5763 18.2512 52.6824 18.1232 52.7608 17.9784C53.0905 17.3686 52.449 17.0904 51.8352 16.761C51.2214 16.4316 50.8832 16.1762 50.5535 16.7852Z" fill="white"/>
<path d="M47.7923 16.3032L49.074 11.4928L49.3781 10.3544C49.6638 10.6603 49.9982 10.9169 50.3678 11.1136C51.7093 11.835 55.7538 11.5476 56.3142 8.71369C56.7713 6.40275 54.3155 7.73111 53.058 7.58668C51.082 7.359 49.7113 6.19712 47.0055 7.65783C43.7692 9.4074 45.3023 13.6963 45.3023 13.6963C45.3023 13.6963 46.7264 13.1392 47.7923 16.3032Z" fill="#37426C"/>
<path d="M50.8145 21.0355L49.1006 20.8796L50.6657 22.4058L50.8145 21.0355Z" fill="#24272D"/>
<path d="M51.5527 14.6938C51.8126 14.6938 52.0234 14.4832 52.0234 14.2235C52.0234 13.9637 51.8126 13.7532 51.5527 13.7532C51.2927 13.7532 51.082 13.9637 51.082 14.2235C51.082 14.4832 51.2927 14.6938 51.5527 14.6938Z" fill="white"/>
<path d="M54.3598 14.6938C54.6198 14.6938 54.8305 14.4832 54.8305 14.2235C54.8305 13.9637 54.6198 13.7532 54.3598 13.7532C54.0999 13.7532 53.8892 13.9637 53.8892 14.2235C53.8892 14.4832 54.0999 14.6938 54.3598 14.6938Z" fill="white"/>
<path d="M41.4413 61.3347C40.6751 62.4405 39.78 63.4513 38.7747 64.3457C38.4547 64.6303 38.1246 64.9021 37.7842 65.1611C37.1767 65.6242 36.5387 66.0459 35.8745 66.4233C34.8842 66.9863 33.8392 67.4474 32.7557 67.7993L26.0581 68.5535L25.9378 68.5429C23.3333 68.2948 20.8221 67.4454 18.6023 66.0617C16.3825 64.6781 14.5148 62.798 13.1465 60.5698C15.6778 55.9316 20.2001 51.1553 28.2292 50.0019C35.8837 48.9027 40.0906 57.8142 41.4413 61.3347Z" fill="#37426C"/>
<path d="M29.2533 53.9918L29.1678 53.9975C28.3527 54.0347 27.5561 53.747 26.9533 53.1976C26.3504 52.6482 25.9906 51.882 25.9529 51.0675L25.4545 40.2641C25.4358 39.8609 25.4967 39.4578 25.6339 39.078C25.7711 38.6983 25.9818 38.3492 26.254 38.0508C26.8037 37.4482 27.5705 37.0884 28.3856 37.0507C29.2008 37.0129 29.9976 37.3003 30.6007 37.8496C31.2038 38.3989 31.5638 39.165 31.6016 39.9795L32.1001 50.7822C32.1374 51.5823 31.8609 52.3654 31.3292 52.9649C30.7975 53.5644 30.0527 53.9328 29.2533 53.9918Z" fill="#EF6E45"/>
<path d="M31.0739 48.3427L31.6314 48.2004C32.2792 48.0319 32.8819 47.7229 33.3966 47.2953C33.9114 46.8677 34.3256 46.3321 34.6097 45.7266C34.8939 45.1209 35.041 44.4602 35.0406 43.7914C35.0403 43.1225 34.8925 42.462 34.6078 41.8567L33.1958 38.8577C32.7395 37.8896 31.9567 37.113 30.9845 36.6641C30.0125 36.2153 28.9132 36.1228 27.8796 36.403C26.7135 36.7194 25.7209 37.4856 25.12 38.5331C24.5192 39.5806 24.3592 40.8237 24.6754 41.989L25.5299 45.1324C25.8451 46.2889 26.604 47.2746 27.6419 47.8756C28.6798 48.4766 29.913 48.6444 31.0739 48.3427Z" fill="#EF6E45"/>
<path d="M24.9922 46.3201C25.7273 46.8819 26.7788 46.7418 27.3409 46.0074C27.9031 45.273 27.763 44.2223 27.028 43.6606L26.2735 43.084C25.5385 42.5222 24.487 42.6623 23.9248 43.3967C23.3626 44.1311 23.5028 45.1818 24.2377 45.7435L24.9922 46.3201Z" fill="#EF6E45"/>
<path d="M35.4576 44.9773C35.8919 46.7809 35.6 49.4263 33.414 49.9791C31.228 50.532 28.5143 48.7852 28.0586 46.9851C27.6029 45.185 28.102 44.1797 30.2895 43.6262C32.4769 43.0726 34.89 42.6244 35.4576 44.9773Z" fill="#24272D"/>
<path d="M30.031 45.2554C29.9951 45.5808 30.0884 45.9071 30.2907 46.1646C30.493 46.4219 30.7884 46.5898 31.1132 46.632C31.4381 46.6741 31.7665 46.5874 32.028 46.3903C32.2895 46.1932 32.4631 45.9014 32.5118 45.5777C32.6008 44.8933 31.9037 44.8662 31.2187 44.7737C30.5337 44.6812 30.12 44.571 30.031 45.2554Z" fill="white"/>
<path d="M31.9415 48.0874L30.2305 48.214L32.0191 49.4592L31.9415 48.0874Z" fill="#24272D"/>
<path d="M29.8201 42.5474C30.0789 42.5474 30.2886 42.3378 30.2886 42.0792C30.2886 41.8207 30.0789 41.6111 29.8201 41.6111C29.5613 41.6111 29.3516 41.8207 29.3516 42.0792C29.3516 42.3378 29.5613 42.5474 29.8201 42.5474Z" fill="white"/>
<path d="M33.0979 41.6224C33.3567 41.6224 33.5665 41.4128 33.5665 41.1542C33.5665 40.8956 33.3567 40.686 33.0979 40.686C32.8392 40.686 32.6294 40.8956 32.6294 41.1542C32.6294 41.4128 32.8392 41.6224 33.0979 41.6224Z" fill="white"/>
<path d="M24.7114 68.1891L26.5855 69.4449C26.5855 69.4449 26.5022 73.9117 28.4682 73.6734C28.4682 73.6734 28.476 74.3792 28.8755 74.4468C29.275 74.5144 30.3637 72.848 30.3637 72.848C30.3637 72.848 31.859 72.2845 32.1545 70.8416C32.45 69.3987 32.5041 65.9906 32.0427 65.7338C31.5813 65.4769 27.0292 65.3645 27.0292 65.3645C27.0292 65.3645 25.1394 65.5936 24.7114 68.1891Z" fill="#37426C"/>
</svg>
