<svg width="136" height="80" viewBox="0 0 136 80" fill="none" xmlns="http://www.w3.org/2000/svg">
<g clip-path="url(#clip0_162_5545)">
<path d="M126.506 55.4966H118.218V75.3208H126.506V55.4966Z" fill="#E9EEF2"/>
<path d="M32.8398 29.6309C35.7581 29.6309 38.557 30.7902 40.6205 32.8537C42.684 34.9173 43.8433 37.716 43.8433 40.6343C43.8433 43.5526 42.684 46.3514 40.6205 48.415C38.557 50.4785 35.7581 51.6378 32.8398 51.6378" fill="#F2F6F9"/>
<path d="M100.868 28.2962C100.868 25.0273 102.167 21.8923 104.478 19.5807C106.79 17.2693 109.925 15.9707 113.194 15.9707C116.463 15.9707 119.597 17.2693 121.909 19.5807C124.221 21.8923 125.519 25.0273 125.519 28.2962" fill="#E9EEF2"/>
<path d="M60.8472 61.4236C60.8472 58.1547 62.1457 55.0197 64.4572 52.7082C66.7686 50.3967 69.9037 49.0981 73.1727 49.0981C76.4416 49.0981 79.5766 50.3967 81.888 52.7082C84.1996 55.0197 85.4981 58.1547 85.4981 61.4236" fill="#F2F6F9"/>
<path d="M74.6645 28.8847L64.0788 13.0125L53.4932 28.8847H74.6645Z" fill="#F2F6F9"/>
<path d="M30.2051 66.1351L21.7152 53.4058L13.2261 66.1351H30.2051Z" fill="#F2F6F9"/>
<path d="M89.4434 5.37646L98.8198 19.4352L108.196 5.37646H89.4434Z" fill="#F2F6F9"/>
<path d="M36.8571 4H28.5684V23.8242H36.8571V4Z" fill="#E9EEF2"/>
<path d="M21.7152 40.4242C18.8126 40.4005 16.0369 39.2307 13.9928 37.1698C11.9487 35.1089 10.8018 32.3238 10.8018 29.4211C10.8018 26.5184 11.9487 23.7333 13.9928 21.6724C16.0369 19.6115 18.8126 18.4417 21.7152 18.418" fill="#F2F6F9"/>
<path d="M52.6307 7.01465L46.5542 13.0912" stroke="#F2F6F9" stroke-width="14"/>
<path d="M78.0488 13.5312L84.1254 19.6078" stroke="#F2F6F9" stroke-width="14"/>
<path d="M8 48.7065L14.0765 54.7831" stroke="#F2F6F9" stroke-width="14"/>
<path d="M124.113 34.6177L130.19 40.6942" stroke="#F2F6F9" stroke-width="14"/>
<path d="M63.4092 33.9102L69.4857 39.9867" stroke="#F2F6F9" stroke-width="14"/>
<path d="M14.9609 4.38989L21.0367 10.4664" stroke="#F2F6F9" stroke-width="14"/>
<path d="M61.0931 67.8447L55.0166 73.9205" stroke="#F2F6F9" stroke-width="14"/>
<path d="M123.797 4.38989L117.721 10.4664" stroke="#F2F6F9" stroke-width="14"/>
<path d="M22.5734 77.3642L35.8318 64.1132C37.0244 62.9202 37.8071 61.3791 38.0669 59.7124L39.201 52.4398L44.1626 59.674L36.3779 74.5979L44.8368 77.1033L52.8374 64.2149C53.5687 63.0363 53.9363 61.6683 53.8941 60.2819C53.8518 58.8956 53.4018 57.5525 52.6001 56.4206L45.8847 46.9499L33.8894 39.6191L31.305 43.6721C30.3286 45.2041 29.7575 46.959 29.6455 48.7723L29.0877 57.7964L14.0762 73.2449L22.5734 77.3642Z" fill="#9A98FD"/>
<path fill-rule="evenodd" clip-rule="evenodd" d="M51.3419 30.9579C55.3131 32.9475 58.1104 42.0771 58.1104 42.0771L66.4264 45.8581L64.3498 51.4218L53.2689 46.7122L52.4403 45.2684L50.5321 50.6126L42.1313 47.4786C41.4772 47.2345 40.9021 46.8163 40.4684 46.2691C40.0345 45.722 39.7586 45.0666 39.6701 44.374L39.5 43.0454L33.8691 39.604C33.8691 39.604 36.9052 35.4346 38.0562 34.1605C40.3465 31.6255 45.1666 27.8629 51.3419 30.9579ZM48.8003 43.3518L52.0389 44.5686L50.2943 41.5288L48.8003 43.3518Z" fill="white"/>
<path d="M51.3419 30.9579L50.8939 31.8519L50.894 31.852L51.3419 30.9579ZM58.1104 42.0771L57.1543 42.37L57.2863 42.8009L57.6965 42.9874L58.1104 42.0771ZM66.4264 45.8581L67.3633 46.2078L67.6894 45.3339L66.8403 44.9478L66.4264 45.8581ZM64.3498 51.4218L63.9586 52.3421L64.921 52.7511L65.2867 51.7715L64.3498 51.4218ZM53.2689 46.7122L52.4016 47.21L52.5688 47.5012L52.8778 47.6325L53.2689 46.7122ZM52.4403 45.2684L53.3076 44.7706L52.2279 42.8894L51.4985 44.9321L52.4403 45.2684ZM50.5321 50.6126L50.1825 51.5496L51.1328 51.9041L51.4738 50.9489L50.5321 50.6126ZM42.1313 47.4786L41.7817 48.4155L41.7818 48.4155L42.1313 47.4786ZM40.4684 46.2691L41.252 45.6479L41.2519 45.6478L40.4684 46.2691ZM39.6701 44.374L40.662 44.2473L40.662 44.247L39.6701 44.374ZM39.5 43.0454L40.4919 42.9185L40.431 42.4424L40.0215 42.1922L39.5 43.0454ZM33.8691 39.604L33.0608 39.0154L32.4225 39.8918L33.3477 40.4573L33.8691 39.604ZM38.0562 34.1605L37.3142 33.4901L37.3142 33.4901L38.0562 34.1605ZM48.8003 43.3518L48.0268 42.718L47.1424 43.7972L48.4486 44.288L48.8003 43.3518ZM52.0389 44.5686L51.6872 45.5047L54.2905 46.4828L52.9062 44.0708L52.0389 44.5686ZM50.2943 41.5288L51.1616 41.031L50.4399 39.7735L49.5208 40.895L50.2943 41.5288ZM50.894 31.852C51.6762 32.2439 52.4815 33.0371 53.2643 34.1204C54.036 35.1882 54.728 36.4563 55.3112 37.6907C55.8925 38.9214 56.3549 40.0952 56.6721 40.9629C56.8304 41.396 56.952 41.7509 57.0335 41.9962C57.0742 42.1189 57.1049 42.214 57.1252 42.2776C57.1353 42.3094 57.1429 42.3334 57.1477 42.3489C57.1502 42.3567 57.1519 42.3624 57.153 42.3659C57.1536 42.3677 57.1539 42.3689 57.1542 42.3696C57.1543 42.37 57.1543 42.3702 57.1543 42.3702C57.1544 42.3703 57.1543 42.3702 57.1543 42.3702C57.1543 42.3701 57.1543 42.37 58.1104 42.0771C59.0665 41.7841 59.0665 41.7839 59.0664 41.7837C59.0664 41.7836 59.0663 41.7833 59.0662 41.7831C59.0661 41.7826 59.0659 41.7819 59.0656 41.7812C59.0652 41.7796 59.0645 41.7776 59.0637 41.7749C59.0621 41.7697 59.0598 41.7622 59.0568 41.7527C59.0508 41.7336 59.0422 41.706 59.0308 41.6705C59.0082 41.5994 58.9749 41.4965 58.9314 41.3656C58.8445 41.1038 58.7164 40.73 58.5505 40.2761C58.2191 39.3698 57.7339 38.1369 57.1195 36.8364C56.507 35.5398 55.7551 34.1525 54.8854 32.9489C54.0268 31.7608 52.9932 30.6667 51.7899 30.0638L50.894 31.852ZM57.6965 42.9874L66.0125 46.7685L66.8403 44.9478L58.5243 41.1667L57.6965 42.9874ZM65.4895 45.5084L63.4129 51.0721L65.2867 51.7715L67.3633 46.2078L65.4895 45.5084ZM64.7409 50.5014L53.6601 45.7919L52.8778 47.6325L63.9586 52.3421L64.7409 50.5014ZM54.1362 46.2144L53.3076 44.7706L51.573 45.7662L52.4016 47.21L54.1362 46.2144ZM51.4985 44.9321L49.5903 50.2764L51.4738 50.9489L53.382 45.6047L51.4985 44.9321ZM50.8816 49.6757L42.4809 46.5417L41.7818 48.4155L50.1825 51.5496L50.8816 49.6757ZM42.481 46.5417C41.9975 46.3613 41.5725 46.0522 41.252 45.6479L39.6847 46.8903C40.2317 47.5803 40.9569 48.1076 41.7817 48.4155L42.481 46.5417ZM41.2519 45.6478C40.9314 45.2435 40.7274 44.7592 40.662 44.2473L38.6781 44.5008C38.7897 45.374 39.1377 46.2004 39.6848 46.8904L41.2519 45.6478ZM40.662 44.247L40.4919 42.9185L38.5081 43.1724L38.6782 44.501L40.662 44.247ZM40.0215 42.1922L34.3906 38.7508L33.3477 40.4573L38.9785 43.8987L40.0215 42.1922ZM33.8691 39.604C34.6775 40.1927 34.6775 40.1927 34.6775 40.1926C34.6776 40.1926 34.6776 40.1926 34.6776 40.1925C34.6777 40.1924 34.6778 40.1922 34.678 40.192C34.6783 40.1915 34.6789 40.1908 34.6796 40.1899C34.681 40.1879 34.6831 40.185 34.6859 40.1811C34.6916 40.1733 34.7001 40.1617 34.7112 40.1465C34.7335 40.1159 34.7664 40.0709 34.8088 40.013C34.8935 39.8972 35.016 39.7302 35.1666 39.5257C35.468 39.1167 35.8815 38.5583 36.3305 37.9608C37.241 36.749 38.2592 35.4276 38.7983 34.8308L37.3142 33.4901C36.7023 34.1675 35.6269 35.5679 34.7316 36.7593C34.2777 37.3634 33.8603 37.927 33.5564 38.3395C33.4044 38.5458 33.2807 38.7145 33.1949 38.8317C33.152 38.8904 33.1186 38.9361 33.0958 38.9673C33.0844 38.9829 33.0757 38.9948 33.0698 39.0029C33.0669 39.007 33.0646 39.01 33.0631 39.0121C33.0624 39.0132 33.0618 39.0139 33.0614 39.0145C33.0612 39.0148 33.061 39.015 33.0609 39.0151C33.0609 39.0152 33.0608 39.0153 33.0608 39.0153C33.0608 39.0153 33.0608 39.0154 33.8691 39.604ZM38.7982 34.8309C39.8864 33.6265 41.5395 32.1744 43.6013 31.3813C45.6256 30.6025 48.0796 30.4414 50.8939 31.8519L51.79 30.0639C48.429 28.3794 45.3853 28.5521 42.8832 29.5146C40.4185 30.4628 38.5164 32.1595 37.3142 33.4901L38.7982 34.8309ZM48.4486 44.288L51.6872 45.5047L52.3906 43.6325L49.152 42.4157L48.4486 44.288ZM52.9062 44.0708L51.1616 41.031L49.427 42.0266L51.1716 45.0664L52.9062 44.0708ZM49.5208 40.895L48.0268 42.718L49.5737 43.9857L51.0677 42.1627L49.5208 40.895Z" fill="#37426C"/>
<path d="M70.5647 80.2707C103.495 80.2707 130.19 80.012 130.19 79.6937C130.19 79.3754 103.495 79.1167 70.5647 79.1167C37.6346 79.1167 10.9395 79.3754 10.9395 79.6937C10.9395 80.012 37.6346 80.2707 70.5647 80.2707Z" fill="#E4EFF7"/>
<path d="M132.672 54.5938L105.865 79.6198H95.5894L122.397 54.5938H132.672Z" fill="#E09B8C"/>
<path d="M122.542 54.2623L94.478 24.2017H103.846L131.908 54.2623H122.542Z" fill="white"/>
<path fill-rule="evenodd" clip-rule="evenodd" d="M93.7148 23.8701H103.99L132.672 54.5939H122.397L93.7148 23.8701ZM131.145 53.9306L103.702 24.5332H95.2417L122.686 53.9306H131.145Z" fill="#F9D0B5"/>
<path d="M65.817 46.6958C65.817 46.6958 68.0859 47.6471 69.0815 48.7695C70.077 49.8918 70.7027 52.3066 70.7027 52.3066C70.7027 52.3066 64.66 53.0693 64.0786 47.5904" fill="#3361C2"/>
<path d="M16.1074 73.5586L12.2549 77.4738L15.8355 79.6196H26.8736L20.9968 76.4922L16.1074 73.5586Z" fill="#162C56"/>
<path d="M37.8307 74.7056L35.3657 79.62H49.4745L43.5977 76.4926L37.8307 74.7056Z" fill="#162C56"/>
<path d="M52.8216 33.1386L53.182 33.342C53.6013 33.5782 54.0675 33.7191 54.5473 33.7548C55.0273 33.7904 55.5091 33.7198 55.9587 33.5481C56.4082 33.3763 56.8145 33.1076 57.1484 32.7611C57.4823 32.4146 57.7358 31.9988 57.8908 31.5432L58.6579 29.2868C58.9059 28.5579 58.8892 27.7649 58.6105 27.0472C58.332 26.3294 57.8095 25.7328 57.1347 25.362C56.3735 24.944 55.4773 24.8453 54.6433 25.0878C53.8094 25.3304 53.1059 25.8942 52.6875 26.6553L51.5593 28.709C51.1441 29.4649 51.0439 30.3539 51.2802 31.1832C51.5165 32.0125 52.0704 32.7151 52.8216 33.1386Z" fill="#EA6F57"/>
<path d="M51.9975 30.0817L52.1097 30.0646C52.7362 29.9696 53.1671 29.3848 53.0721 28.7582L52.9527 27.9707C52.8577 27.3442 52.2729 26.9133 51.6463 27.0082L51.5342 27.0253C50.9077 27.1202 50.4767 27.7051 50.5717 28.3316L50.6911 29.1193C50.7861 29.7458 51.371 30.1766 51.9975 30.0817Z" fill="#EA6F57"/>
<path d="M52.6035 29.4255L54.7965 26.6091L55.3167 25.94C55.4201 26.222 55.5695 26.485 55.7589 26.7181C56.442 27.57 59.1907 28.5118 60.3535 26.7977C61.3019 25.3976 59.31 25.5899 58.5208 25.1426C57.2813 24.4396 56.7007 23.2886 54.5084 23.4964C51.8813 23.7418 51.6904 27.0019 51.6904 27.0019C51.6904 27.0019 52.7862 27.0365 52.6035 29.4255Z" fill="#24272D"/>
<path d="M53.0747 33.2855L52.2383 32.3799L52.2744 33.9429L53.0747 33.2855Z" fill="#24272D"/>
<path d="M122.397 54.5939L95.5891 79.62L66.9072 48.8969L93.7144 23.8701L122.397 54.5939Z" fill="#F9D0B5"/>
<path d="M64.4087 79.6198L61.8221 75.7407L59.2349 79.6198H64.4087Z" fill="#37426C"/>
<path d="M94.1731 53.4583L95.1716 49.311L90.9595 49.9831L94.1731 53.4583Z" fill="#2B292D"/>
<path d="M87.8724 79.6198L81.0869 69.4453L74.3008 79.6198H87.8724Z" fill="#3361C2"/>
<path d="M98.1023 52.4771L95.4966 54.8865L101.259 61.1182L103.865 58.7088L98.1023 52.4771Z" fill="#2B292D"/>
<path d="M67.708 79.62C67.708 77.6046 68.5087 75.6718 69.9337 74.2467C71.3588 72.8216 73.2916 72.021 75.307 72.021C77.3223 72.021 79.2552 72.8216 80.6803 74.2467C82.1057 75.6718 82.906 77.6046 82.906 79.62" fill="#828282"/>
<path d="M89.607 48.5209C89.9489 48.2045 90.2252 47.8239 90.4205 47.4007C90.6158 46.9775 90.7256 46.52 90.744 46.0544C90.7617 45.5888 90.688 45.1241 90.5266 44.687C90.3652 44.2498 90.1198 43.8487 89.803 43.5066C89.4868 43.1644 89.1066 42.888 88.6829 42.693C88.2599 42.4979 87.8023 42.3881 87.3365 42.3699C86.8716 42.3516 86.4066 42.4253 85.9696 42.5866C85.5326 42.748 85.131 42.9939 84.7891 43.3102L89.607 48.5209Z" fill="#2B292D"/>
<path d="M48.8437 43.2534L46.0774 42.1731L46.0015 36.1113" stroke="white" stroke-width="3" stroke-linecap="square"/>
<path d="M39.3157 42.0752L39.0342 37.8276" stroke="white" stroke-width="3" stroke-linecap="square"/>
<path d="M39.4238 50.3315L38.9536 55.4685" stroke="white" stroke-width="3" stroke-linecap="square"/>
<path d="M52.199 46.1097C52.199 46.1097 53.1201 45.6285 54.5438 45.7412L56.0736 46.3168C56.0736 46.3168 57.4317 47.4059 55.5696 49.3322C53.7074 51.2585 50.6338 50.0934 50.6338 50.0934" fill="#EA6F57"/>
<path d="M97.5797 82.4836C114.615 82.4836 128.426 68.6736 128.426 51.6378C128.426 34.6021 114.615 20.792 97.5797 20.792C80.5441 20.792 66.7339 34.6021 66.7339 51.6378C66.7339 68.6736 80.5441 82.4836 97.5797 82.4836Z" fill="#4C65C4"/>
<path d="M103.154 82.4836C120.19 82.4836 134 68.6736 134 51.6378C134 34.6021 120.19 20.792 103.154 20.792C86.1188 20.792 72.3086 34.6021 72.3086 51.6378C72.3086 68.6736 86.1188 82.4836 103.154 82.4836Z" fill="#9A98FD"/>
<path opacity="0.2" d="M103.154 74.6791C115.88 74.6791 126.196 64.3631 126.196 51.6376C126.196 38.9122 115.88 28.5962 103.154 28.5962C90.4288 28.5962 80.1128 38.9122 80.1128 51.6376C80.1128 64.3631 90.4288 74.6791 103.154 74.6791Z" fill="#37426C"/>
<path d="M110.693 60.3162C109.522 61.5628 107.826 62.3598 105.606 62.7075V66.1312H102.066V62.8326C100.645 62.739 99.2392 62.4745 97.8794 62.045C96.716 61.6979 95.612 61.1722 94.6064 60.4858L96.5226 55.9817C97.5142 56.6518 98.5972 57.1717 99.7373 57.5247C100.9 57.9064 102.113 58.1041 103.335 58.1105C105.57 58.1105 106.687 57.5242 106.687 56.3514C106.687 55.7347 106.368 55.2768 105.729 54.978C105.091 54.6792 104.064 54.3654 102.649 54.0368C101.326 53.7553 100.025 53.3792 98.7546 52.9116C97.7132 52.5098 96.7901 51.846 96.0727 50.9828C95.3246 50.0993 94.9505 48.9088 94.9505 47.4109C94.9378 46.5667 95.0934 45.7284 95.4077 44.9463C95.7221 44.1643 96.1888 43.4542 96.7802 42.8586C97.9976 41.5941 99.7567 40.8203 102.058 40.5368V37.1436H105.597V40.4761C106.69 40.5745 107.772 40.781 108.826 41.0923C109.792 41.3727 110.719 41.7772 111.584 42.296L109.784 46.8323C107.818 45.7214 105.912 45.166 104.064 45.166C102.903 45.166 102.057 45.3446 101.526 45.7018C100.996 46.059 100.731 46.5269 100.731 47.1055C100.731 47.6806 101.045 48.1123 101.675 48.4004C102.304 48.6884 103.316 48.9861 104.711 49.2933C106.041 49.5701 107.35 49.945 108.626 50.4149C109.663 50.8196 110.584 51.4766 111.31 52.3276C112.066 53.2028 112.445 54.3934 112.445 55.8995C112.454 56.7162 112.304 57.5267 112.004 58.2847C111.703 59.0426 111.257 59.7331 110.693 60.3162Z" fill="#9A98FD"/>
</g>
<defs>
<clipPath id="clip0_162_5545">
<rect width="136" height="80" fill="white"/>
</clipPath>
</defs>
</svg>
